<?xml version="1.0" standalone="no"?>
<!DOCTYPE svg PUBLIC "-//W3C//DTD SVG 1.1//EN" "http://www.w3.org/Graphics/SVG/1.1/DTD/svg11.dtd" >
<svg xmlns="http://www.w3.org/2000/svg">
    <defs>
        <font id="KIAM">
            <font-face font-family="KIAM"
                       units-per-em="1000"
                       ascent="966"
                       descent="-213"
                       bbox="-567 -199 1153 966"
                    />
            <missing-glyph horiz-adv-x="0" />
            
            <glyph glyph-name="!" unicode="&#x21;" horiz-adv-x="197" d=" M92,104 L195,104 L195,0 L92,0 M94,728 L197,728 L185,223 L105,223"/> 
            <glyph glyph-name="&quot;" unicode="&#x22;" horiz-adv-x="315" d=" M218,728 L315,728 L315,505 L218,505 M57,728 L154,728 L154,505 L57,505"/> 
            <glyph glyph-name="#" unicode="&#x23;" horiz-adv-x="585" d=" M234,304 L360,304 L381,431 L255,431 M53,511 L179,511 L212,719 L301,719 L268,511 L394,511 L427,719 L516,719 L483,511 L585,511 L585,431 L470,431 L449,304 L558,304 L558,224 L437,224 L402,5 L313,5 L348,224 L222,224 L187,5 L97,5 L133,224 L26,224 L26,304 L145,304 L165,431 L53,431"/> 
            <glyph glyph-name="$" unicode="&#x24;" horiz-adv-x="542" d=" M138,534 Q138,476 170,458 Q198,440 236,429 L246,426 L246,630 Q138,620 138,534 M442,218 Q442,289 360,311 Q343,315 341,317 L341,96 Q442,116 442,218 M39,532 Q39,692 246,707 L246,780 L341,780 L341,707 Q426,701 504,676 L504,608 Q424,627 341,630 L341,401 Q444,372 494,335 Q542,297 542,207 Q542,116 482,70 Q423,24 341,15 L341,-74 L246,-74 L246,14 Q244,14 180,21 Q121,27 52,49 L52,117 Q165,95 246,91 L246,340 Q142,370 92,408 Q39,449 39,532"/> 
            <glyph glyph-name="%" unicode="&#x25;" horiz-adv-x="842" d=" M634,69 Q718,69 733,98 Q748,128 748,192 Q748,257 732,286 Q717,315 676,315 Q635,315 620,286 Q604,257 604,192 Q604,128 619,98 M676,-4 Q598,-4 554,46 Q509,97 509,190 Q509,329 573,360 Q638,390 676,390 Q754,390 798,336 Q842,280 842,190 Q842,100 798,48 Q755,-4 676,-4 M166,410 Q250,410 265,440 Q280,470 280,534 Q280,599 264,627 Q249,656 208,656 Q167,656 152,627 Q136,599 136,534 Q136,470 166,410 M630,739 L731,739 L250,-16 L148,-16 M286,337 Q130,337 86,388 Q41,438 41,531 Q41,670 105,700 Q168,731 208,731 Q287,731 330,676 Q374,621 374,531 Q374,441 330,388"/> 
            <glyph glyph-name="&amp;" unicode="&#x26;" horiz-adv-x="646" d=" M312,659 Q224,659 224,567 Q224,512 271,456 L283,441 Q394,496 394,574 Q394,659 312,659 M135,216 Q135,70 288,70 Q379,70 434,122 L246,345 Q135,288 135,216 M104,44 Q38,96 38,201 Q38,306 99,348 Q165,393 194,407 Q128,485 128,562 Q128,691 201,710 Q275,731 313,731 Q394,731 440,690 Q487,650 487,576 Q487,453 335,379 L490,192 Q522,254 529,349 L599,349 Q594,221 539,134 L646,5 L533,5 L481,66 Q402,-7 286,-7 Q172,-7 104,44"/> 
            <glyph glyph-name="'" unicode="&#x27;" horiz-adv-x="153" d=" M56,728 L153,728 L153,505 L56,505"/> 
            <glyph glyph-name="(" unicode="&#x28;" horiz-adv-x="325" d=" M57,363 Q57,613 245,796 L325,796 Q206,667 178,550 Q151,434 151,372 L151,344 Q151,171 220,60 Q290,-50 325,-89 L245,-89 Q57,94 57,345"/> 
            <glyph glyph-name=")" unicode="&#x29;" horiz-adv-x="291" d=" M291,345 Q291,94 103,-89 L22,-89 Q145,44 170,158 Q196,277 196,336 L196,364 Q196,538 127,646 Q61,752 22,796 L103,796 Q291,613 291,363"/> 
            <glyph glyph-name="*" unicode="&#x2A;" horiz-adv-x="349" d=" M164,402 L74,343 L40,403 L135,450 L40,498 L74,557 L164,499 L160,609 L229,609 L226,499 L315,557 L349,498 L254,450 L349,403 L315,343 L226,402 L229,292 L160,292"/> 
            <glyph glyph-name="+" unicode="&#x2B;" horiz-adv-x="481" d=" M224,330 L49,330 L49,407 L224,407 L224,589 L307,589 L307,407 L481,407 L481,330 L307,330 L307,148 L224,148"/> 
            <glyph glyph-name="," unicode="&#x2C;" horiz-adv-x="205" d=" M93,141 L205,141 L120,-82 L37,-82"/> 
            <glyph glyph-name="-" unicode="&#x2D;" horiz-adv-x="460" d=" M70,409 L460,409 L460,331 L70,331"/> 
            <glyph glyph-name="." unicode="&#x2E;" horiz-adv-x="181" d=" M78,104 L181,104 L181,0 L78,0"/> 
            <glyph glyph-name="/" unicode="&#x2F;" horiz-adv-x="372" d=" M276,786 L372,786 L131,-79 L35,-79"/> 
            <glyph glyph-name="0" unicode="&#x30;" horiz-adv-x="577" d=" M472,357 Q472,656 319,656 Q236,656 200,578 Q163,503 163,355 Q163,208 200,138 Q236,67 318,67 Q400,67 436,138 Q472,208 472,357 M577,362 Q578,-9 318,-11 Q58,-9 58,362 Q58,734 318,734 Q578,734 577,362"/> 
            <glyph glyph-name="1" unicode="&#x31;" horiz-adv-x="292" d=" M292,0 L191,0 L191,632 L68,612 L68,683 L292,737"/> 
            <glyph glyph-name="2" unicode="&#x32;" horiz-adv-x="517" d=" M217,655 Q158,655 63,629 L63,699 Q154,734 262,734 Q490,734 490,527 Q490,407 418,326 Q355,252 299,198 L176,78 L517,78 L487,0 L57,0 L57,78 L226,244 Q385,398 385,502 Q385,591 360,615 Q336,640 307,647 Q277,655 217,655"/> 
            <glyph glyph-name="3" unicode="&#x33;" horiz-adv-x="498" d=" M249,734 Q469,734 469,555 Q469,434 324,385 Q498,358 498,198 Q497,-10 253,-10 Q149,-10 29,23 L29,93 Q146,69 234,69 Q322,69 357,101 Q391,132 393,187 Q395,279 342,308 Q290,338 187,338 L151,338 L151,416 L187,416 Q366,416 366,552 Q366,603 338,628 Q311,652 229,654 Q152,655 54,629 L54,699 Q144,734 249,734"/> 
            <glyph glyph-name="4" unicode="&#x34;" horiz-adv-x="596" d=" M366,227 L366,616 L122,227 M366,151 L23,151 L23,233 L338,727 L463,727 L463,227 L596,227 L566,151 L463,151 L463,0 L366,0"/> 
            <glyph glyph-name="5" unicode="&#x35;" horiz-adv-x="487" d=" M146,70 Q318,70 350,109 Q383,148 383,206 Q383,307 344,340 Q302,371 227,371 Q157,371 58,363 L78,727 L473,727 L443,649 L174,649 L163,442 Q195,449 240,449 Q362,449 425,394 Q487,337 487,218 Q487,-9 253,-9 Q149,-9 29,24 L29,94"/> 
            <glyph glyph-name="6" unicode="&#x36;" horiz-adv-x="561" d=" M561,236 Q561,61 469,25 Q378,-11 316,-11 Q51,-11 51,333 Q51,676 166,706 Q287,734 349,734 Q418,734 520,703 L520,633 Q390,664 334,659 Q283,655 220,627 Q160,600 157,416 Q248,451 341,451 Q561,451 561,236 M310,67 Q455,67 457,210 Q457,310 424,342 Q393,372 311,372 Q231,372 156,343 L156,336 Q156,195 187,132 Q219,67 310,67"/> 
            <glyph glyph-name="7" unicode="&#x37;" horiz-adv-x="498" d=" M30,647 L30,727 L498,727 L498,648 L195,0 L91,0 L395,647"/> 
            <glyph glyph-name="8" unicode="&#x38;" horiz-adv-x="580" d=" M449,546 Q449,658 310,658 Q240,658 206,628 Q171,598 171,546 Q171,494 204,463 Q235,432 310,409 Q380,432 414,463 Q449,495 449,546 M310,65 Q390,65 433,100 Q475,134 475,176 Q475,245 428,286 Q382,326 310,338 Q235,324 191,286 Q146,245 146,188 Q146,130 188,98 Q229,65 310,65 M580,188 Q580,99 509,42 Q437,-13 310,-13 Q117,-13 81,66 Q45,144 45,188 Q45,316 199,374 Q66,432 66,549 Q66,633 130,684 Q192,736 309,736 Q483,736 517,663 Q552,588 552,554 Q552,489 512,445 Q472,399 416,374 Q580,314 580,188"/> 
            <glyph glyph-name="9" unicode="&#x39;" horiz-adv-x="561" d=" M264,252 Q162,252 107,312 Q51,371 51,477 Q51,662 142,698 Q233,734 296,734 Q561,734 561,385 Q561,37 404,4 Q244,-27 92,22 L92,92 Q199,67 254,67 Q354,67 402,116 Q450,163 455,287 Q364,252 264,252 M284,656 Q216,656 186,614 Q155,574 155,508 Q155,400 188,365 Q222,331 302,331 Q381,331 456,360 Q456,512 436,563 Q417,610 384,634 Q353,656 284,656"/> 
            <glyph glyph-name=":" unicode="&#x3A;" horiz-adv-x="183" d=" M84,241 L183,241 L183,137 L84,137 M84,580 L183,580 L183,476 L84,476"/> 
            <glyph glyph-name=";" unicode="&#x3B;" horiz-adv-x="182" d=" M70,241 L182,241 L97,18 L14,18 M75,580 L174,580 L174,476 L75,476"/> 
            <glyph glyph-name="&lt;" unicode="&#x3C;" horiz-adv-x="459" d=" M71,332 L71,405 L459,653 L459,558 L168,368 L459,180 L459,83"/> 
            <glyph glyph-name="=" unicode="&#x3D;" horiz-adv-x="479" d=" M51,316 L479,316 L479,239 L51,239 M51,498 L479,498 L479,422 L51,422"/> 
            <glyph glyph-name="&gt;" unicode="&#x3E;" horiz-adv-x="459" d=" M71,83 L71,180 L362,368 L71,558 L71,653 L459,405 L459,332"/> 
            <glyph glyph-name="?" unicode="&#x3F;" horiz-adv-x="429" d=" M372,709 Q429,664 429,583 Q429,503 406,448 Q383,393 334,353 Q285,313 266,290 Q245,266 245,229 L245,188 L160,188 L160,239 Q160,289 184,322 Q211,358 252,391 Q333,457 333,534 Q333,611 303,644 Q273,676 199,676 Q126,676 40,652 L40,719 Q145,754 229,754 Q314,754 372,709 M151,104 L254,104 L254,0 L151,0"/> 
            <glyph glyph-name="@" unicode="&#x40;" horiz-adv-x="863" d=" M345,195 Q345,68 416,68 Q474,68 517,111 L562,354 Q535,383 486,383 Q435,383 414,366 Q389,351 368,308 Q345,268 345,195 M457,-192 Q262,-192 156,-92 Q49,9 49,194 Q49,379 168,518 Q288,657 497,657 Q663,657 763,557 Q863,457 863,300 Q863,83 774,38 Q683,-5 631,-5 Q550,-5 524,52 Q469,-5 396,-5 Q322,-5 285,42 Q247,88 247,160 Q247,299 306,378 Q365,458 468,458 Q536,458 582,421 L586,448 L676,448 L613,116 Q606,73 645,73 Q706,73 740,130 Q774,186 774,272 Q774,424 703,504 Q633,583 480,583 Q328,583 233,472 Q139,360 139,189 Q139,-32 258,-76 Q378,-120 457,-120 Q538,-120 689,-72 L689,-142 Q554,-192 457,-192"/> 
            <glyph glyph-name="A" unicode="&#x41;" horiz-adv-x="636" d=" M202,264 L449,264 L326,650 M474,186 L177,186 L117,0 L15,0 L252,727 L401,727 L636,0 L534,0"/> 
            <glyph glyph-name="B" unicode="&#x42;" horiz-adv-x="593" d=" M360,78 Q488,78 488,204 Q488,331 360,329 L171,329 L171,78 M339,407 Q467,407 467,528 Q467,595 433,622 Q398,649 339,649 L171,649 L171,407 M593,203 Q593,0 357,0 L70,0 L70,727 L346,727 Q469,727 520,679 Q572,631 572,527 Q572,423 485,376 Q536,359 565,320 Q593,282 593,203"/> 
            <glyph glyph-name="C" unicode="&#x43;" horiz-adv-x="546" d=" M348,-5 Q188,-5 119,93 Q50,190 50,363 Q50,734 334,734 Q444,734 546,700 L546,632 Q438,656 352,656 Q155,656 155,364 Q155,72 353,73 Q431,73 546,97 L546,29 Q440,-5 348,-5"/> 
            <glyph glyph-name="D" unicode="&#x44;" horiz-adv-x="618" d=" M513,376 Q513,512 473,580 Q432,648 319,648 L172,648 L172,79 L319,79 Q481,79 496,198 Q513,308 513,376 M70,0 L70,727 L331,727 Q566,727 592,592 Q618,456 618,376 Q618,190 556,96 Q496,0 331,0"/> 
            <glyph glyph-name="E" unicode="&#x45;" horiz-adv-x="556" d=" M70,727 L556,727 L556,648 L172,648 L172,408 L539,408 L509,328 L172,328 L172,79 L556,79 L556,0 L70,0"/> 
            <glyph glyph-name="F" unicode="&#x46;" horiz-adv-x="537" d=" M70,728 L537,728 L537,649 L172,649 L172,408 L504,408 L474,328 L172,328 L172,0 L70,0"/> 
            <glyph glyph-name="G" unicode="&#x47;" horiz-adv-x="612" d=" M350,73 Q412,73 511,98 L511,319 L314,319 L314,397 L612,397 L612,0 L511,0 L511,32 Q410,-5 337,-5 Q50,-5 50,364 Q50,636 154,686 Q259,734 359,734 Q461,734 566,700 L566,630 Q278,703 216,606 Q155,508 155,364 Q155,73 350,73"/> 
            <glyph glyph-name="H" unicode="&#x48;" horiz-adv-x="616" d=" M514,328 L172,328 L172,0 L70,0 L70,727 L172,727 L172,409 L514,409 L514,727 L616,727 L616,0 L514,0"/> 
            <glyph glyph-name="I" unicode="&#x49;" horiz-adv-x="172" d=" M70,727 L172,727 L172,0 L70,0"/> 
            <glyph glyph-name="J" unicode="&#x4A;" horiz-adv-x="325" d=" M138,69 Q187,69 205,90 Q223,110 223,162 L223,727 L325,727 L325,147 Q325,80 284,27 Q243,-26 140,-9 Q39,7 20,12 L20,80 Q92,69 138,69"/> 
            <glyph glyph-name="K" unicode="&#x4B;" horiz-adv-x="617" d=" M70,727 L171,727 L171,411 L487,727 L612,727 L259,369 L617,0 L489,0 L171,327 L171,0 L70,0"/> 
            <glyph glyph-name="L" unicode="&#x4C;" horiz-adv-x="520" d=" M70,0 L70,727 L172,727 L172,79 L520,79 L490,0"/> 
            <glyph glyph-name="M" unicode="&#x4D;" horiz-adv-x="781" d=" M781,727 L781,0 L683,0 L683,654 L498,28 L353,28 L168,654 L168,0 L70,0 L70,727 L242,727 L426,103 L609,727"/> 
            <glyph glyph-name="N" unicode="&#x4E;" horiz-adv-x="632" d=" M70,727 L235,727 L534,77 L534,727 L632,727 L632,0 L467,0 L167,652 L167,0 L70,0"/> 
            <glyph glyph-name="O" unicode="&#x4F;" horiz-adv-x="637" d=" M117,84 Q50,170 50,360 Q50,548 116,641 Q183,734 378,734 Q573,734 606,593 Q637,447 637,360 Q637,268 622,200 Q605,128 554,63 Q503,-5 343,-5 Q184,-5 117,84 M446,73 Q532,207 532,360 Q532,584 464,620 Q397,656 342,656 Q287,656 252,637 Q216,616 196,580 Q175,547 164,488 Q155,433 155,360 Q155,287 164,233 Q175,178 206,126 Q238,73 446,73"/> 
            <glyph glyph-name="P" unicode="&#x50;" horiz-adv-x="592" d=" M487,486 Q487,648 341,648 L171,648 L171,309 L341,309 Q416,309 452,358 Q487,408 487,486 M592,420 Q592,230 354,230 L171,230 L171,0 L70,0 L70,727 L354,727 Q476,727 534,669 Q592,611 592,420"/> 
            <glyph glyph-name="Q" unicode="&#x51;" horiz-adv-x="637" d=" M446,73 Q532,207 532,360 Q532,584 464,620 Q397,656 342,656 Q287,656 252,637 Q216,616 196,580 Q175,547 164,488 Q155,433 155,360 Q155,287 164,233 Q175,178 206,126 Q238,73 446,73 M342,-5 Q110,-5 80,132 Q50,270 50,360 Q50,450 65,520 Q80,591 114,638 Q148,684 204,710 Q260,734 380,734 Q502,734 569,640 Q637,546 637,360 Q637,171 585,103 Q532,33 463,11 L583,-138 L466,-138 L359,-5"/> 
            <glyph glyph-name="R" unicode="&#x52;" horiz-adv-x="610" d=" M340,339 Q487,339 487,501 Q487,583 451,616 Q414,648 340,648 L171,648 L171,339 M592,501 Q592,315 457,274 L610,0 L498,0 L354,260 L171,260 L171,0 L70,0 L70,727 L353,727 Q537,727 564,645 Q592,564 592,501"/> 
            <glyph glyph-name="S" unicode="&#x53;" horiz-adv-x="546" d=" M232,656 Q146,612 146,548 Q146,484 182,460 Q219,435 297,416 Q441,379 494,338 Q546,296 546,199 Q546,101 464,38 Q384,-26 246,-6 Q115,13 56,31 L56,98 Q185,73 278,73 Q366,73 406,105 Q443,137 443,201 Q443,266 406,288 Q368,312 295,328 Q156,361 100,409 Q43,457 43,545 Q43,734 297,734 Q407,733 508,701 L508,634 Q417,656 323,656"/> 
            <glyph glyph-name="T" unicode="&#x54;" horiz-adv-x="632" d=" M25,727 L632,727 L602,647 L374,647 L374,0 L272,0 L272,647 L25,647"/> 
            <glyph glyph-name="U" unicode="&#x55;" horiz-adv-x="606" d=" M173,231 Q173,75 337,75 Q414,75 458,110 Q503,146 503,231 L503,727 L606,727 L606,230 Q606,48 504,22 Q402,-5 304,-5 Q205,-5 138,50 Q70,106 70,230 L70,727 L173,727"/> 
            <glyph glyph-name="V" unicode="&#x56;" horiz-adv-x="640" d=" M640,727 L404,0 L256,0 L19,727 L126,727 L330,81 L533,727"/> 
            <glyph glyph-name="W" unicode="&#x57;" horiz-adv-x="917" d=" M544,727 L675,75 L813,727 L917,727 L752,0 L597,0 L466,648 L335,0 L180,0 L15,727 L119,727 L257,75 L388,727"/> 
            <glyph glyph-name="X" unicode="&#x58;" horiz-adv-x="621" d=" M263,363 L19,727 L133,727 L320,448 L508,727 L621,727 L377,364 L621,0 L507,0 L319,279 L132,0 L19,0"/> 
            <glyph glyph-name="Y" unicode="&#x59;" horiz-adv-x="627" d=" M373,0 L270,0 L270,321 L15,727 L127,727 L321,410 L517,727 L627,727 L373,321"/> 
            <glyph glyph-name="Z" unicode="&#x5A;" horiz-adv-x="549" d=" M58,727 L538,727 L538,647 L164,80 L549,80 L518,0 L58,0 L58,83 L425,647 L58,647"/> 
            <glyph glyph-name="[" unicode="&#x5B;" horiz-adv-x="304" d=" M304,711 L160,711 L160,-5 L304,-5 L304,-82 L65,-82 L65,789 L304,789"/> 
            <glyph glyph-name="\" unicode="&#x5C;" horiz-adv-x="918" d=" M426,453 L505,453 L466,648 M675,75 L724,373 L615,373 M257,75 L317,373 L207,373 M15,453 L96,453 L45,727 L149,727 L194,453 L333,453 L388,727 L544,727 L599,453 L737,453 L783,727 L887,727 L836,453 L918,453 L918,373 L821,373 L752,0 L597,0 L521,373 L410,373 L335,0 L180,0 L111,373 L15,373"/> 
            <glyph glyph-name="]" unicode="&#x5D;" horiz-adv-x="274" d=" M35,789 L274,789 L274,-82 L35,-82 L35,-5 L180,-5 L180,711 L35,711"/> 
            <glyph glyph-name="^" unicode="&#x5E;" horiz-adv-x="521" d=" M283,681 L142,414 L46,414 L229,762 L333,762 L521,414 L425,414"/> 
            <glyph glyph-name="_" unicode="&#x5F;" horiz-adv-x="506" d=" M506,-86 L506,-158 L41,-158 L41,-86"/> 
            <glyph glyph-name="`" unicode="&#x60;" horiz-adv-x="198" d=" M198,553 L120,553 L55,776 L162,776"/> 
            <glyph glyph-name="a" unicode="&#x61;" horiz-adv-x="494" d=" M246,63 Q316,63 393,111 L393,269 Q204,269 176,235 Q148,201 148,159 Q148,63 246,63 M249,531 Q494,531 494,370 L494,0 L398,0 L398,43 Q300,-7 216,-7 Q43,-7 43,152 Q43,214 81,270 Q119,328 234,332 Q362,337 393,337 L393,351 Q393,444 330,450 Q266,456 214,456 Q165,456 90,442 L90,510 Q176,531 249,531"/> 
            <glyph glyph-name="b" unicode="&#x62;" horiz-adv-x="531" d=" M289,67 Q374,67 400,116 Q426,168 426,232 Q426,350 400,402 Q375,455 308,455 Q244,455 166,429 L166,98 Q235,67 289,67 M313,531 Q372,531 416,512 Q458,491 484,456 Q510,417 520,370 Q531,318 531,225 Q531,130 480,61 Q430,-8 313,-8 Q250,-8 166,31 L166,0 L65,0 L65,722 L166,752 L166,503 Q250,531 313,531"/> 
            <glyph glyph-name="c" unicode="&#x63;" horiz-adv-x="447" d=" M266,-8 Q43,-8 43,262 Q43,397 99.5,464.5 Q156,532 268,531 Q361,531 439,500 L439,432 Q360,454 304,454 Q210,454 178,406 Q148,360 148,288 Q148,162 179,116 Q211,69 284,69 Q357,69 447,92 L447,24 Q363,-8 266,-8"/> 
            <glyph glyph-name="d" unicode="&#x64;" horiz-adv-x="509" d=" M174,116 Q200,67 269,67 Q339,67 408,98 L408,429 Q330,455 283,455 Q200,455 174,402 Q148,350 148,258 Q148,168 174,116 M408,31 Q263,-36 152,13 Q43,63 43,260 Q43,458 121,494 Q198,531 261,531 Q324,531 408,503 L408,722 L509,752 L509,0 L408,0"/> 
            <glyph glyph-name="e" unicode="&#x65;" horiz-adv-x="516" d=" M178,418 Q150,382 145,289 L418,289 Q417,378 396,408 Q376,437 350,447 Q327,457 265,457 Q205,457 178,418 M516,275 Q516,255 514,217 L145,217 Q146,140 178,104 Q211,68 302,68 Q394,68 495,98 L495,30 Q391,-7 302,-7 Q214,-7 170,9 Q124,27 84,72 Q43,118 43,257 Q43,472 133,502 Q225,531 285,531 Q403,531 460,472 Q516,413 516,275"/> 
            <glyph glyph-name="f" unicode="&#x66;" horiz-adv-x="405" d=" M340,679 Q256,679 242,658 Q227,638 227,593 L227,525 L386,525 L386,446 L227,446 L227,0 L126,0 L126,446 L15,446 L15,525 L126,525 L126,591 Q126,687 156.5,730 Q187,773 248,763 Q365,744 405,732 L405,664"/> 
            <glyph glyph-name="g" unicode="&#x67;" horiz-adv-x="506" d=" M506,-33 Q506,-194 262,-194 Q190,-194 105,-173 L105,-105 Q180,-119 228,-119 Q328,-119 368,-99 Q405,-79 405,-14 L405,46 Q333,13 266,13 Q143,13 92,81 Q43,150 43,279 Q43,406 92.5,468.5 Q142,531 241,530 Q342,528 405,496 L405,525 L506,525 M172,414 Q148,374 148,306 Q148,186 172,136 Q197,87 264,87 Q333,87 405,115 L405,423 Q330,456 263,456 Q196,456 172,414"/> 
            <glyph glyph-name="h" unicode="&#x68;" horiz-adv-x="521" d=" M357,531 Q443,531 482,486 Q521,440 521,371 L521,0 L420,0 L420,371 Q420,418 396,436 Q373,456 342,456 Q283,456 190,422 L166,413 L166,0 L65,0 L65,722 L166,752 L166,482 Q270,531 357,531"/> 
            <glyph glyph-name="i" unicode="&#x69;" horiz-adv-x="166" d=" M65,727 L166,727 L166,600 L65,600 M65,525 L166,525 L166,0 L65,0"/> 
            <glyph glyph-name="j" unicode="&#x6A;" horiz-adv-x="166" d=" M166,525 L166,-25 Q166,-137 94,-176 Q20,-213 -98,-179 L-98,-111 Q13,-136 40,-114 Q65,-90 65,-47 L65,525 M65,727 L166,727 L166,600 L65,600"/> 
            <glyph glyph-name="k" unicode="&#x6B;" horiz-adv-x="520" d=" M65,0 L65,722 L166,752 L166,307 L393,525 L518,525 L252,269 L520,0 L395,0 L166,229 L166,0"/> 
            <glyph glyph-name="l" unicode="&#x6C;" horiz-adv-x="166" d=" M166,0 L65,0 L65,722 L166,752"/> 
            <glyph glyph-name="m" unicode="&#x6D;" horiz-adv-x="859" d=" M311,456 Q264,456 166,419 L166,0 L65,0 L65,505 L166,535 L166,489 Q250,531 345,531 Q440,531 473,476 Q593,531 687,531 Q781,531 820,486 Q859,439 859,371 L859,0 L758,0 L758,371 Q758,418 734,436 Q713,456 679,456 Q649,456 609,448 Q571,440 541,427 L501,411 Q505,394 505,371 L505,0 L404,0 L404,371 Q404,418 380,436 Q359,456 311,456"/> 
            <glyph glyph-name="n" unicode="&#x6E;" horiz-adv-x="520" d=" M342,456 Q259,456 166,413 L166,0 L65,0 L65,505 L166,535 L166,483 L201,498 Q278,531 360,531 Q442,531 481,486 Q520,440 520,371 L520,0 L419,0 L419,371 Q419,418 396,436 Q373,456 342,456"/> 
            <glyph glyph-name="o" unicode="&#x6F;" horiz-adv-x="526" d=" M421,285 Q420,457 284,457 Q148,457 148,285 Q148,154 180,110 Q213,67 286,67 Q388,67 405,136 Q421,201 421,285 M526,531 Q526,-7 284,-7 Q43,-7 43,262 Q41,531 284,531"/> 
            <glyph glyph-name="p" unicode="&#x70;" horiz-adv-x="531" d=" M426,270 Q426,361 408,394 Q388,430 365,442 Q343,456 289,456 Q236,456 166,423 L166,90 Q225,70 301,67 Q426,67 426,270 M531,270 Q531,-7 390,-7 Q250,-7 166,20 L166,-166 L65,-196 L65,505 L166,535 L166,496 Q232,528 304,530 Q431,532 480,465 Q531,398 531,270"/> 
            <glyph glyph-name="q" unicode="&#x71;" horiz-adv-x="508" d=" M173,408 Q147,359 147,270 Q147,67 272,67 Q348,70 407,90 L407,423 Q336,456 268,456 Q198,456 173,408 M407,525 L508,525 L508,-166 L407,-196 L407,20 Q323,-7 182,-7 Q42,-7 42,270 Q42,464 120,498 Q201,531 269,530 Q341,528 407,496"/> 
            <glyph glyph-name="r" unicode="&#x72;" horiz-adv-x="396" d=" M166,0 L65,0 L65,505 L166,535 L166,494 Q277,538 396,525 L396,446 Q277,456 166,421"/> 
            <glyph glyph-name="s" unicode="&#x73;" horiz-adv-x="473" d=" M170,338 Q200,320 286,304 Q374,288 424,250 Q473,213 473,144 Q473,-7 245,-7 Q120,-7 51,23 L51,91 Q144,67 226,67 Q307,67 340,82 Q371,96 371,129 Q371,182 347,199 Q325,214 256,228 Q137,252 90,286 Q43,321 43,375 Q43,464 98,498 Q152,533 250,531 Q346,528 444,504 L444,435 Q337,457 262,457 Q190,457 168,442 Q145,427 145,391 Q145,355 170,338"/> 
            <glyph glyph-name="t" unicode="&#x74;" horiz-adv-x="404" d=" M254,62 Q338,62 404,77 L404,9 Q220,-49 172,15 Q125,80 125,150 L125,447 L15,447 L15,525 L125,525 L125,667 L226,697 L226,525 L386,525 L386,447 L226,447 L226,148 Q226,104 240,82"/> 
            <glyph glyph-name="u" unicode="&#x75;" horiz-adv-x="520" d=" M256,68 Q303,68 419,106 L419,525 L520,525 L520,0 L419,0 L419,40 Q305,-7 253,-7 Q65,-7 65,151 L65,505 L166,535 L166,144 Q166,68 256,68"/> 
            <glyph glyph-name="v" unicode="&#x76;" horiz-adv-x="514" d=" M108,525 L263,68 L418,525 L514,525 L334,0 L190,0 L10,525"/> 
            <glyph glyph-name="w" unicode="&#x77;" horiz-adv-x="813" d=" M106,525 L231,69 L342,525 L481,525 L591,70 L716,525 L813,525 L661,0 L519,0 L411,449 L303,0 L159,0 L7,525"/> 
            <glyph glyph-name="x" unicode="&#x78;" horiz-adv-x="522" d=" M266,332 L414,525 L522,525 L320,262 L522,0 L414,0 L266,192 L118,0 L10,0 L212,262 L10,525 L118,525"/> 
            <glyph glyph-name="y" unicode="&#x79;" horiz-adv-x="520" d=" M520,-33 Q520,-194 276,-194 Q204,-194 119,-173 L119,-105 Q194,-119 242,-119 Q342,-119 382,-99 Q419,-79 419,-14 L419,59 Q308,13 254,13 Q65,13 65,171 L65,505 L166,535 L166,164 Q166,124 189,106 Q213,90 262,90 Q311,90 419,125 L419,525 L520,525"/> 
            <glyph glyph-name="z" unicode="&#x7A;" horiz-adv-x="474" d=" M53,525 L464,525 L464,453 L160,78 L474,78 L444,0 L51,0 L51,80 L350,447 L53,447"/> 
            <glyph glyph-name="{" unicode="&#x7B;" horiz-adv-x="382" d=" M255,33 Q255,-9 296,-9 L382,-9 L382,-81 L278,-81 Q225,-81 194,-52 Q163,-24 163,34 L163,222 Q163,271 138,292 Q112,312 46,316 L46,390 Q115,395 138,415 Q163,436 163,485 L163,673 Q163,731 194,759 Q225,788 278,788 L382,788 L382,716 L296,716 Q255,716 255,674 L255,481 Q255,378 145,355 L145,352 Q255,332 255,227"/> 
            <glyph glyph-name="|" unicode="&#x7C;" horiz-adv-x="199" d=" M99,789 L199,789 L199,-82 L99,-82"/> 
            <glyph glyph-name="}" unicode="&#x7D;" horiz-adv-x="382" d=" M173,674 Q173,716 132,716 L46,716 L46,788 L150,788 Q203,788 234,759 Q265,731 265,673 L265,485 Q265,436 290,415 Q313,395 382,390 L382,316 Q316,312 290,292 Q265,271 265,222 L265,34 Q265,-24 234,-52 Q203,-81 150,-81 L46,-81 L46,-9 L132,-9 Q173,-9 173,33 L173,227 Q173,332 283,352 L283,355 Q189,375 182,417 Q173,461 173,481"/> 
            <glyph glyph-name="~" unicode="&#x7E;" horiz-adv-x="437" d=" M154,446 Q200,446 247,408 Q293,371 327,369 Q360,369 390,423 L437,388 Q402,292 310,292 Q271,292 224,330 Q178,368 141,368 Q103,368 70,316 L23,349 Q54,446 154,446"/> 
            <glyph glyph-name="Ѐ" unicode="&#x400;" horiz-adv-x="556" d=" M296,772 L191,899 L299,899 L361,772 M70,727 L556,727 L556,648 L172,648 L172,408 L539,408 L509,328 L172,328 L172,79 L556,79 L556,0 L70,0"/> 
            <glyph glyph-name="Ё" unicode="&#x401;" horiz-adv-x="556" d=" M175,883 L276,883 L276,772 L175,772 M376,883 L477,883 L477,772 L376,772 M70,727 L556,727 L556,648 L172,648 L172,408 L539,408 L509,328 L172,328 L172,79 L556,79 L556,0 L70,0"/> 
            <glyph glyph-name="Ђ" unicode="&#x402;" horiz-adv-x="765" d=" M507,454 Q456,454 374,433 L374,0 L272,0 L272,647 L25,647 L25,727 L632,727 L602,647 L374,647 L374,502 Q455,531 540,531 Q652,532 708.5,464.5 Q765,397 765,262 Q765,-8 542,-8 L542,71 Q639,81 650,151 Q660,217 660,264 Q660,308 654,343 Q648,379 632,403 Q616,427 587,441 Q560,454 507,454"/> 
            <glyph glyph-name="Ѓ" unicode="&#x403;" horiz-adv-x="490" d=" M211,772 L273,899 L381,899 L276,772 M172,647 L172,0 L70,0 L70,727 L490,727 L460,647"/> 
            <glyph glyph-name="Є" unicode="&#x404;" horiz-adv-x="546" d=" M348,-5 Q188,-5 119,93 Q50,190 50,363 Q50,734 334,734 Q444,734 546,700 L546,632 Q438,656 369,656 Q299,656 232,621 Q164,587 156,408 L429,408 L399,328 L155,328 Q172,73 353,73 Q431,73 546,97 L546,29 Q440,-5 348,-5"/> 
            <glyph glyph-name="Ѕ" unicode="&#x405;" horiz-adv-x="546" d=" M232,656 Q146,612 146,548 Q146,484 182,460 Q219,435 297,416 Q441,379 494,338 Q546,296 546,199 Q546,101 464,38 Q384,-26 246,-6 Q115,13 56,31 L56,98 Q185,73 278,73 Q366,73 406,105 Q443,137 443,201 Q443,266 406,288 Q368,312 295,328 Q156,361 100,409 Q43,457 43,545 Q43,734 297,734 Q407,733 508,701 L508,634 Q417,656 323,656"/> 
            <glyph glyph-name="І" unicode="&#x406;" horiz-adv-x="172" d=" M70,727 L172,727 L172,0 L70,0"/> 
            <glyph glyph-name="Ї" unicode="&#x407;" horiz-adv-x="260" d=" M159,883 L260,883 L260,772 L159,772 M-2,883 L99,883 L99,772 L-2,772 M80,727 L182,727 L182,0 L80,0"/> 
            <glyph glyph-name="Ј" unicode="&#x408;" horiz-adv-x="325" d=" M138,69 Q187,69 205,90 Q223,110 223,162 L223,727 L325,727 L325,147 Q325,80 284,27 Q243,-26 140,-9 Q39,7 20,12 L20,80 Q92,69 138,69"/> 
            <glyph glyph-name="Љ" unicode="&#x409;" horiz-adv-x="986" d=" M630,75 L743,75 Q820,75 852,100 Q884,126 884,183 Q884,278 852,302 Q822,328 744,328 L630,328 M117,69 Q167,69 185,90 Q203,110 203,162 L203,727 L630,727 L630,409 L746,409 Q924,409 955,334 Q986,262 986,198 Q986,81 928,41 Q870,0 746,0 L529,0 L529,647 L305,647 L305,147 Q305,-6 152,-6 Q78,-6 20,9 L20,77 Q70,69 117,69"/> 
            <glyph glyph-name="Њ" unicode="&#x40A;" horiz-adv-x="841" d=" M490,75 L598,75 Q675,75 706,100 Q739,125 739,183 Q739,278 707,302 Q677,328 599,328 L490,328 M490,727 L490,409 L601,409 Q778,409 810,334 Q841,262 841,198 Q841,81 784,41 Q725,0 601,0 L388,0 L388,328 L165,328 L165,0 L63,0 L63,727 L165,727 L165,409 L388,409 L388,727"/> 
            <glyph glyph-name="Ћ" unicode="&#x40B;" horiz-adv-x="728" d=" M550,406 Q467,406 374,363 L374,0 L272,0 L272,647 L25,647 L25,727 L632,727 L602,647 L374,647 L374,433 L409,448 Q486,481 568,481 Q650,481 689,436 Q728,390 728,321 L728,0 L627,0 L627,321 Q627,368 604,386 Q581,406 550,406"/> 
            <glyph glyph-name="Ќ" unicode="&#x40C;" horiz-adv-x="617" d=" M241,772 L303,899 L411,899 L306,772 M70,727 L171,727 L171,411 L487,727 L612,727 L259,369 L617,0 L489,0 L171,327 L171,0 L70,0"/> 
            <glyph glyph-name="Ѝ" unicode="&#x40D;" horiz-adv-x="632" d=" M339,772 L234,899 L342,899 L404,772 M632,0 L535,0 L535,652 L235,0 L70,0 L70,727 L168,727 L168,77 L467,727 L632,727"/> 
            <glyph glyph-name="Ў" unicode="&#x40E;" horiz-adv-x="520" d=" M196,806 Q160,840 160,885 L221,885 Q231,830 289,830 Q346,830 365,885 L427,885 Q426,839 388,806 Q351,772 292,772 Q231,772 196,806 M520,156 Q520,-5 276,-5 Q204,-5 119,16 L119,84 Q194,70 242,70 Q342,70 382,90 Q419,110 419,175 L419,261 Q308,215 254,215 Q65,215 65,373 L65,707 L166,737 L166,366 Q166,326 189,308 Q213,292 262,292 Q311,292 419,327 L419,727 L520,727"/> 
            <glyph glyph-name="Џ" unicode="&#x40F;" horiz-adv-x="606" d=" M284,0 L70,0 L70,727 L173,727 L173,80 L503,80 L503,727 L606,727 L606,0 L386,0 L386,-195 L284,-195"/> 
            <glyph glyph-name="А" unicode="&#x410;" horiz-adv-x="636" d=" M202,264 L449,264 L326,650 M474,186 L177,186 L117,0 L15,0 L252,727 L401,727 L636,0 L534,0"/> 
            <glyph glyph-name="Б" unicode="&#x411;" horiz-adv-x="537" d=" M181,75 L294,75 Q371,75 402,100 Q435,125 435,183 Q435,278 403,302 Q373,328 295,328 L181,328 M487,727 L487,647 L181,647 L181,409 L297,409 Q474,409 506,334 Q537,262 537,198 Q537,81 480,41 Q421,0 297,0 L80,0 L80,727"/> 
            <glyph glyph-name="В" unicode="&#x412;" horiz-adv-x="593" d=" M360,78 Q488,78 488,204 Q488,331 360,329 L171,329 L171,78 M339,407 Q467,407 467,528 Q467,595 433,622 Q398,649 339,649 L171,649 L171,407 M593,203 Q593,0 357,0 L70,0 L70,727 L346,727 Q469,727 520,679 Q572,631 572,527 Q572,423 485,376 Q536,359 565,320 Q593,282 593,203"/> 
            <glyph glyph-name="Г" unicode="&#x413;" horiz-adv-x="490" d=" M172,647 L172,0 L70,0 L70,727 L490,727 L460,647"/> 
            <glyph glyph-name="Д" unicode="&#x414;" horiz-adv-x="639" d=" M272,506 Q272,310 238,220 Q205,130 178,79 L477,79 L477,648 L272,648 M576,727 L576,79 L639,79 L639,-195 L537,-195 L537,0 L114,0 L114,-195 L12,-195 L12,79 L69,79 Q128,190 149,286 Q170,382 170,536 L170,727"/> 
            <glyph glyph-name="Е" unicode="&#x415;" horiz-adv-x="556" d=" M70,727 L556,727 L556,648 L172,648 L172,408 L539,408 L509,328 L172,328 L172,79 L556,79 L556,0 L70,0"/> 
            <glyph glyph-name="Ж" unicode="&#x416;" horiz-adv-x="846" d=" M378,399 L378,727 L480,727 L480,399 L486,399 L723,727 L836,727 L589,399 Q648,404 688,372 Q729,340 745,295 L846,0 L747,0 L659,258 Q635,329 566,329 L480,329 L480,0 L378,0 L378,329 L290,329 Q224,329 197,256 L109,0 L10,0 L113,292 Q151,399 267,399 L21,727 L134,727 L371,399"/> 
            <glyph glyph-name="З" unicode="&#x417;" horiz-adv-x="498" d=" M366,552 Q366,656 239,655 Q147,654 54,594 L54,664 Q134,729 239,734 Q469,740 469,555 Q469,434 324,385 Q498,358 498,198 Q497,-16 253,-10 Q131,-7 29,53 L29,123 Q203,47 298,72 Q391,99 394,198 Q394,315 314,326 Q233,338 187,338 L151,338 L151,416 L187,416 Q366,416 366,552"/> 
            <glyph glyph-name="И" unicode="&#x418;" horiz-adv-x="632" d=" M632,0 L535,0 L535,652 L235,0 L70,0 L70,727 L168,727 L168,77 L467,727 L632,727"/> 
            <glyph glyph-name="Й" unicode="&#x419;" horiz-adv-x="632" d=" M251,806 Q215,840 215,885 L276,885 Q286,830 344,830 Q401,830 420,885 L482,885 Q481,839 443,806 Q406,772 346,772 Q286,772 251,806 M632,0 L535,0 L535,652 L235,0 L70,0 L70,727 L168,727 L168,77 L467,727 L632,727"/> 
            <glyph glyph-name="К" unicode="&#x41A;" horiz-adv-x="617" d=" M70,727 L171,727 L171,411 L487,727 L612,727 L259,369 L617,0 L489,0 L171,327 L171,0 L70,0"/> 
            <glyph glyph-name="Л" unicode="&#x41B;" horiz-adv-x="630" d=" M117,69 Q167,69 185,90 Q203,110 203,162 L203,727 L630,727 L630,0 L529,0 L529,647 L305,647 L305,147 Q305,-6 152,-6 Q78,-6 20,9 L20,77 Q70,69 117,69"/> 
            <glyph glyph-name="М" unicode="&#x41C;" horiz-adv-x="781" d=" M781,727 L781,0 L683,0 L683,654 L498,28 L353,28 L168,654 L168,0 L70,0 L70,727 L242,727 L426,103 L609,727"/> 
            <glyph glyph-name="Н" unicode="&#x41D;" horiz-adv-x="616" d=" M514,328 L172,328 L172,0 L70,0 L70,727 L172,727 L172,409 L514,409 L514,727 L616,727 L616,0 L514,0"/> 
            <glyph glyph-name="О" unicode="&#x41E;" horiz-adv-x="637" d=" M117,84 Q50,170 50,360 Q50,548 116,641 Q183,734 378,734 Q573,734 606,593 Q637,447 637,360 Q637,268 622,200 Q605,128 554,63 Q503,-5 343,-5 Q184,-5 117,84 M446,73 Q532,207 532,360 Q532,584 464,620 Q397,656 342,656 Q287,656 252,637 Q216,616 196,580 Q175,547 164,488 Q155,433 155,360 Q155,287 164,233 Q175,178 206,126 Q238,73 446,73"/> 
            <glyph glyph-name="П" unicode="&#x41F;" horiz-adv-x="606" d=" M173,0 L70,0 L70,727 L606,727 L606,0 L503,0 L503,647 L173,647"/> 
            <glyph glyph-name="Р" unicode="&#x420;" horiz-adv-x="592" d=" M487,486 Q487,648 341,648 L171,648 L171,309 L341,309 Q416,309 452,358 Q487,408 487,486 M592,420 Q592,230 354,230 L171,230 L171,0 L70,0 L70,727 L354,727 Q476,727 534,669 Q592,611 592,420"/> 
            <glyph glyph-name="С" unicode="&#x421;" horiz-adv-x="546" d=" M348,-5 Q188,-5 119,93 Q50,190 50,363 Q50,734 334,734 Q444,734 546,700 L546,632 Q438,656 352,656 Q155,656 155,364 Q155,72 353,73 Q431,73 546,97 L546,29 Q440,-5 348,-5"/> 
            <glyph glyph-name="Т" unicode="&#x422;" horiz-adv-x="632" d=" M25,727 L632,727 L602,647 L374,647 L374,0 L272,0 L272,647 L25,647"/> 
            <glyph glyph-name="У" unicode="&#x423;" horiz-adv-x="520" d=" M520,156 Q520,-5 276,-5 Q204,-5 119,16 L119,84 Q194,70 242,70 Q342,70 382,90 Q419,110 419,175 L419,261 Q308,215 254,215 Q65,215 65,373 L65,707 L166,737 L166,366 Q166,326 189,308 Q213,292 262,292 Q311,292 419,327 L419,727 L520,727"/> 
            <glyph glyph-name="Ф" unicode="&#x424;" horiz-adv-x="638" d=" M155,396 Q155,257 196,216 Q235,177 294,166 L294,562 Q155,537 155,396 M532,360 Q532,464 490,507 Q448,550 392,561 L392,166 Q498,181 516,245 Q532,314 532,360 M50,304 Q50,496 118,564 Q185,631 294,642 L294,727 L392,727 L392,641 Q497,631 568,564 Q638,498 638,360 Q638,223 568,160 Q498,97 392,87 L392,0 L294,0 L294,87 Q50,109 50,304"/> 
            <glyph glyph-name="Х" unicode="&#x425;" horiz-adv-x="621" d=" M263,363 L19,727 L133,727 L320,448 L508,727 L621,727 L377,364 L621,0 L507,0 L319,279 L132,0 L19,0"/> 
            <glyph glyph-name="Ц" unicode="&#x426;" horiz-adv-x="655" d=" M553,0 L70,0 L70,727 L173,727 L173,80 L503,80 L503,727 L606,727 L606,51 L655,51 L655,-162 L553,-162"/> 
            <glyph glyph-name="Ч" unicode="&#x427;" horiz-adv-x="521" d=" M521,726 L521,0 L420,0 L420,243 Q405,237 384,228 Q361,218 322,207 Q283,195 212,195 Q142,195 104,240 Q65,286 65,355 L65,707 L166,737 L166,355 Q166,308 190,290 Q213,270 244,270 Q303,270 396,304 L420,313 L420,726"/> 
            <glyph glyph-name="Ш" unicode="&#x428;" horiz-adv-x="827" d=" M182,727 L182,80 L402,80 L402,727 L504,727 L504,80 L725,80 L725,727 L827,727 L827,0 L80,0 L80,727"/> 
            <glyph glyph-name="Щ" unicode="&#x429;" horiz-adv-x="880" d=" M778,0 L80,0 L80,727 L182,727 L182,80 L402,80 L402,727 L504,727 L504,80 L725,80 L725,727 L827,727 L827,51 L880,51 L880,-162 L778,-162"/> 
            <glyph glyph-name="Ъ" unicode="&#x42A;" horiz-adv-x="635" d=" M279,75 L392,75 Q469,75 500,100 Q533,125 533,183 Q533,278 501,302 Q471,328 393,328 L279,328 M279,727 L279,409 L395,409 Q572,409 604,334 Q635,262 635,198 Q635,81 578,41 Q519,0 395,0 L178,0 L178,647 L-2,647 L-2,727"/> 
            <glyph glyph-name="Ы" unicode="&#x42B;" horiz-adv-x="692" d=" M590,727 L692,727 L692,0 L590,0 M181,75 L294,75 Q371,75 402,100 Q435,125 435,183 Q435,278 403,302 Q373,328 295,328 L181,328 M181,727 L181,409 L297,409 Q474,409 506,334 Q537,262 537,198 Q537,81 480,41 Q421,0 297,0 L80,0 L80,727"/> 
            <glyph glyph-name="Ь" unicode="&#x42C;" horiz-adv-x="537" d=" M181,75 L294,75 Q371,75 402,100 Q435,125 435,183 Q435,278 403,302 Q373,328 295,328 L181,328 M181,727 L181,409 L297,409 Q474,409 506,334 Q537,262 537,198 Q537,81 480,41 Q421,0 297,0 L80,0 L80,727"/> 
            <glyph glyph-name="Э" unicode="&#x42D;" horiz-adv-x="546" d=" M231,73 Q299,73 364,110 Q433,147 440,328 L197,328 L167,408 L440,408 Q432,521 390,588 Q349,656 253,656 Q158,656 50,632 L50,700 Q152,734 262,734 Q546,734 546,363 Q546,99 442,48 Q340,-5 248,-5 Q156,-5 50,29 L50,97 Q166,73 231,73"/> 
            <glyph glyph-name="Ю" unicode="&#x42E;" horiz-adv-x="879" d=" M688,73 Q774,207 774,360 Q774,584 706,620 Q638,656 584,656 Q529,656 494,637 Q458,616 438,580 Q417,547 406,488 Q397,433 397,360 Q397,287 406,233 Q417,178 448,126 Q480,73 688,73 M181,331 L181,0 L79,0 L79,727 L181,727 L181,411 L293,411 Q305,647 404,691 Q500,734 622,734 Q744,734 811,640 Q879,546 879,360 Q879,172 812,84 Q744,-5 584,-5 Q352,-5 307,200 Q293,259 292,331"/> 
            <glyph glyph-name="Я" unicode="&#x42F;" horiz-adv-x="580" d=" M163,501 Q163,339 310,339 L479,339 L479,648 L310,648 Q236,648 199,616 Q163,583 163,501 M193,274 Q58,315 58,497 Q58,680 147,704 Q237,727 297,727 L580,727 L580,0 L479,0 L479,260 L296,260 L152,0 L40,0"/> 
            <glyph glyph-name="а" unicode="&#x430;" horiz-adv-x="494" d=" M246,63 Q316,63 393,111 L393,269 Q204,269 176,235 Q148,201 148,159 Q148,63 246,63 M249,531 Q494,531 494,370 L494,0 L398,0 L398,43 Q300,-7 216,-7 Q43,-7 43,152 Q43,214 81,270 Q119,328 234,332 Q362,337 393,337 L393,351 Q393,444 330,450 Q266,456 214,456 Q165,456 90,442 L90,510 Q176,531 249,531"/> 
            <glyph glyph-name="б" unicode="&#x431;" horiz-adv-x="526" d=" M421,285 Q420,457 284,457 Q148,457 148,285 Q148,154 180,110 Q213,67 286,67 Q388,67 405,136 Q421,201 421,285 M286,531 Q526,531 526,262 Q526,-7 284,-7 Q43,-7 43,257 L43,258 Q48,438 64,491 Q78,544 104,592 Q150,677 244,716 Q337,753 474,767 L474,683 Q365,677 269,648 Q174,619 138,485 Q137,484 137,481 Q199,531 286,531"/> 
            <glyph glyph-name="в" unicode="&#x432;" horiz-adv-x="504" d=" M313,76 Q406,76 406,157 Q406,222 370,227 Q330,232 313,232 L169,232 L169,76 M298,301 Q340,301 366,316 Q391,329 391,375 Q391,421 366,434 Q340,448 298,448 L169,448 L169,301 M504,147 Q504,0 331,0 L74,0 L74,525 L324,525 Q414,525 451,489 Q489,453 489,380 Q489,307 427,271 Q504,245 504,147"/> 
            <glyph glyph-name="г" unicode="&#x433;" horiz-adv-x="411" d=" M176,445 L176,0 L74,0 L74,525 L411,525 L381,445"/> 
            <glyph glyph-name="д" unicode="&#x434;" horiz-adv-x="534" d=" M223,359 Q223,200 156,76 L381,76 L381,448 L223,448 M133,384 L133,525 L481,525 L481,74 L534,74 L534,-162 L434,-162 L434,0 L103,0 L103,-162 L8,-162 L8,74 L52,74 Q133,195 133,384"/> 
            <glyph glyph-name="е" unicode="&#x435;" horiz-adv-x="516" d=" M178,418 Q150,382 145,289 L418,289 Q417,378 396,408 Q376,437 350,447 Q327,457 265,457 Q205,457 178,418 M516,275 Q516,255 514,217 L145,217 Q146,140 178,104 Q211,68 302,68 Q394,68 495,98 L495,30 Q391,-7 302,-7 Q214,-7 170,9 Q124,27 84,72 Q43,118 43,257 Q43,472 133,502 Q225,531 285,531 Q403,531 460,472 Q516,413 516,275"/> 
            <glyph glyph-name="ж" unicode="&#x436;" horiz-adv-x="689" d=" M300,525 L395,525 L395,294 L569,525 L681,525 L484,283 Q534,283 566,264 Q602,246 621,191 L689,0 L591,0 L538,156 Q522,202 497,215 Q472,228 444,228 L395,228 L395,0 L300,0 L300,228 L252,228 Q184,228 158,156 L105,0 L7,0 L75,191 Q94,246 130,264 Q162,283 211,283 L14,525 L124,525 L300,294"/> 
            <glyph glyph-name="з" unicode="&#x437;" horiz-adv-x="383" d=" M273,390 Q273,453 200,452 Q128,451 55,402 L55,473 Q120,525 194,526 Q363,530 363,392 Q363,314 285,277 Q383,248 383,143 Q383,-16 203,-11 Q118,-10 38,37 L38,106 Q132,64 189,63 Q292,62 292,143 Q292,218 240,224 Q192,232 157,232 L123,232 L123,305 L157,305 Q273,305 273,390"/> 
            <glyph glyph-name="и" unicode="&#x438;" horiz-adv-x="518" d=" M172,525 L172,113 L395,525 L518,525 L518,0 L420,0 L420,418 L196,0 L74,0 L74,525"/> 
            <glyph glyph-name="й" unicode="&#x439;" horiz-adv-x="518" d=" M172,525 L172,113 L395,525 L518,525 L518,0 L420,0 L420,418 L196,0 L74,0 L74,525 M190,604 Q154,638 154,683 L215,683 Q225,628 283,628 Q340,628 359,683 L421,683 Q420,637 382,604 Q345,570 286,570 Q225,570 190,604"/> 
            <glyph glyph-name="к" unicode="&#x43A;" horiz-adv-x="532" d=" M77,0 L77,525 L175,525 L175,304 L405,525 L530,525 L264,269 L532,0 L407,0 L175,232 L175,0"/> 
            <glyph glyph-name="л" unicode="&#x43B;" horiz-adv-x="483" d=" M110,60 Q116,73 116,116 L116,525 L483,525 L483,0 L387,0 L387,449 L205,449 L205,105 Q205,-6 97,-6 Q43,-6 1,5 L1,54 Q43,48 73,48 Q104,48 110,60"/> 
            <glyph glyph-name="м" unicode="&#x43C;" horiz-adv-x="570" d=" M570,525 L570,0 L483,0 L483,420 L372,19 L255,19 L145,420 L145,0 L57,0 L57,525 L199,525 L314,96 L428,525"/> 
            <glyph glyph-name="н" unicode="&#x43D;" horiz-adv-x="509" d=" M171,525 L171,310 L411,310 L411,525 L509,525 L509,0 L411,0 L411,233 L171,233 L171,0 L74,0 L74,525"/> 
            <glyph glyph-name="о" unicode="&#x43E;" horiz-adv-x="526" d=" M421,285 Q420,457 284,457 Q148,457 148,285 Q148,154 180,110 Q213,67 286,67 Q388,67 405,136 Q421,201 421,285 M526,531 Q526,-7 284,-7 Q43,-7 43,262 Q41,531 284,531"/> 
            <glyph glyph-name="п" unicode="&#x43F;" horiz-adv-x="504" d=" M504,525 L504,0 L406,0 L406,449 L171,449 L171,0 L74,0 L74,525"/> 
            <glyph glyph-name="р" unicode="&#x440;" horiz-adv-x="531" d=" M426,270 Q426,361 408,394 Q388,430 365,442 Q343,456 289,456 Q236,456 166,423 L166,90 Q225,70 301,67 Q426,67 426,270 M531,270 Q531,-7 390,-7 Q250,-7 166,20 L166,-166 L65,-196 L65,505 L166,535 L166,496 Q232,528 304,530 Q431,532 480,465 Q531,398 531,270"/> 
            <glyph glyph-name="с" unicode="&#x441;" horiz-adv-x="447" d=" M266,-8 Q43,-8 43,262 Q43,397 99.5,464.5 Q156,532 268,531 Q361,531 439,500 L439,432 Q360,454 304,454 Q210,454 178,406 Q148,360 148,288 Q148,162 179,116 Q211,69 284,69 Q357,69 447,92 L447,24 Q363,-8 266,-8"/> 
            <glyph glyph-name="т" unicode="&#x442;" horiz-adv-x="439" d=" M269,449 L269,0 L171,0 L171,449 L12,449 L12,525 L439,525 L409,449"/> 
            <glyph glyph-name="у" unicode="&#x443;" horiz-adv-x="520" d=" M520,-33 Q520,-194 276,-194 Q204,-194 119,-173 L119,-105 Q194,-119 242,-119 Q342,-119 382,-99 Q419,-79 419,-14 L419,59 Q308,13 254,13 Q65,13 65,171 L65,505 L166,535 L166,164 Q166,124 189,106 Q213,90 262,90 Q311,90 419,125 L419,525 L520,525"/> 
            <glyph glyph-name="ф" unicode="&#x444;" horiz-adv-x="874" d=" M632,67 Q717,67 743,116 Q769,168 769,232 Q769,351 742,402 Q717,455 651,455 Q587,455 509,429 L509,98 Q578,67 632,67 M174,116 Q200,67 269,67 Q339,67 408,98 L408,429 Q330,455 283,455 Q200,455 174,402 Q148,350 148,258 Q148,168 174,116 M656,531 Q715,531 759,512 Q804,490 826,456 Q852,421 863,370 Q874,318 874,225 Q874,131 824,61 Q773,-8 656,-8 Q601,-8 559,10 Q515,29 509,30 L509,-195 L408,-195 L408,30 Q404,29 382,20 Q255,-34 150,14 Q43,63 43,260 Q43,458 121,494 Q198,531 261,531 Q324,531 408,503 L408,722 L509,752 L509,503 Q593,531 656,531"/> 
            <glyph glyph-name="х" unicode="&#x445;" horiz-adv-x="522" d=" M266,332 L414,525 L522,525 L320,262 L522,0 L414,0 L266,192 L118,0 L10,0 L212,262 L10,525 L118,525"/> 
            <glyph glyph-name="ц" unicode="&#x446;" horiz-adv-x="556" d=" M74,0 L74,525 L171,525 L171,76 L406,76 L406,525 L504,525 L504,51 L556,51 L556,-162 L454,-162 L454,0"/> 
            <glyph glyph-name="ч" unicode="&#x447;" horiz-adv-x="521" d=" M521,525 L521,0 L420,0 L420,183 Q405,177 384,168 Q361,158 322,147 Q283,135 212,135 Q142,135 104,180 Q65,226 65,295 L65,504 L166,534 L166,295 Q166,248 190,230 Q213,210 244,210 Q303,210 396,244 L420,253 L420,525"/> 
            <glyph glyph-name="ш" unicode="&#x448;" horiz-adv-x="716" d=" M171,524 L171,76 L347,76 L347,524 L444,524 L444,76 L619,76 L619,524 L716,524 L716,0 L74,0 L74,524"/> 
            <glyph glyph-name="щ" unicode="&#x449;" horiz-adv-x="765" d=" M663,0 L74,0 L74,524 L171,524 L171,76 L347,76 L347,524 L444,524 L444,76 L619,76 L619,524 L716,524 L716,51 L765,51 L765,-162 L663,-162"/> 
            <glyph glyph-name="ъ" unicode="&#x44A;" horiz-adv-x="580" d=" M256,73 L383,73 Q434,73 458,88 Q481,105 481,150 Q481,196 458,214 Q435,233 384,233 L256,233 M256,525 L256,310 L386,310 Q478,310 528,276 Q580,243 580,151 Q580,20 502,10 Q428,0 386,0 L158,0 L158,445 L-2,445 L-2,525"/> 
            <glyph glyph-name="ы" unicode="&#x44B;" horiz-adv-x="660" d=" M172,73 L299,73 Q350,73 374,88 Q397,105 397,150 Q397,196 374,214 Q351,233 300,233 L172,233 M172,525 L172,310 L302,310 Q394,310 444,276 Q496,243 496,151 Q496,20 418,10 Q344,0 302,0 L74,0 L74,525 M660,525 L660,0 L559,0 L559,525"/> 
            <glyph glyph-name="ь" unicode="&#x44C;" horiz-adv-x="496" d=" M172,73 L299,73 Q350,73 374,88 Q397,105 397,150 Q397,196 374,214 Q351,233 300,233 L172,233 M172,525 L172,310 L302,310 Q394,310 444,276 Q496,243 496,151 Q496,20 418,10 Q344,0 302,0 L74,0 L74,525"/> 
            <glyph glyph-name="э" unicode="&#x44D;" horiz-adv-x="447" d=" M222,531 Q334,532 390.5,464.5 Q447,397 447,262 Q447,-8 224,-8 Q127,-8 43,24 L43,92 Q133,69 185,69 Q240,69 288,90 Q336,111 340,219 L144,219 L114,299 L341,299 Q335,372 308,412 Q281,454 207,454 Q132,454 51,432 L51,500 Q129,531 222,531"/> 
            <glyph glyph-name="ю" unicode="&#x44E;" horiz-adv-x="739" d=" M634,285 Q634,457 498,457 Q362,457 361,285 Q361,154 394,110 Q425,67 499,67 Q602,67 618,136 Q634,201 634,285 M499,531 Q739,531 739,262 Q739,-7 504,-7 Q268,-7 257,226 L175,226 L175,0 L74,0 L74,525 L175,525 L175,302 L257,302 Q267,405 320,468 Q372,531 499,531"/> 
            <glyph glyph-name="я" unicode="&#x44F;" horiz-adv-x="428" d=" M337,256 L337,449 L231,449 Q186,449 162,430 Q140,409 140,358 Q140,256 231,256 M46,339 Q46,451 90,486 Q131,524 222,524 L428,524 L428,0 L337,0 L337,181 L228,181 L128,0 L27,0 L135,194 Q46,229 46,339"/> 
            <glyph glyph-name="ѐ" unicode="&#x450;" horiz-adv-x="516" d=" M276,570 L171,697 L279,697 L341,570 M178,418 Q150,382 145,289 L418,289 Q417,378 396,408 Q376,437 350,447 Q327,457 265,457 Q205,457 178,418 M516,275 Q516,255 514,217 L145,217 Q146,140 178,104 Q211,68 302,68 Q394,68 495,98 L495,30 Q391,-7 302,-7 Q214,-7 170,9 Q124,27 84,72 Q43,118 43,257 Q43,472 133,502 Q225,531 285,531 Q403,531 460,472 Q516,413 516,275"/> 
            <glyph glyph-name="ё" unicode="&#x451;" horiz-adv-x="516" d=" M336,681 L437,681 L437,570 L336,570 M135,681 L236,681 L236,570 L135,570 M178,418 Q150,382 145,289 L418,289 Q417,378 396,408 Q376,437 350,447 Q327,457 265,457 Q205,457 178,418 M516,275 Q516,255 514,217 L145,217 Q146,140 178,104 Q211,68 302,68 Q394,68 495,98 L495,30 Q391,-7 302,-7 Q214,-7 170,9 Q124,27 84,72 Q43,118 43,257 Q43,472 133,502 Q225,531 285,531 Q403,531 460,472 Q516,413 516,275"/> 
            <glyph glyph-name="ђ" unicode="&#x452;" horiz-adv-x="521" d=" M357,531 Q443,531 482,486 Q521,440 521,371 L521,-25 Q521,-137 449,-176 Q375,-213 257,-179 L257,-111 Q368,-136 395,-114 Q420,-90 420,-47 L420,371 Q420,418 396,436 Q373,456 342,456 Q283,456 190,422 L166,413 L166,0 L65,0 L65,590 L9,590 L9,658 L65,658 L65,727 L166,727 L166,658 L316,658 L316,590 L166,590 L166,482 Q270,531 357,531"/> 
            <glyph glyph-name="ѓ" unicode="&#x453;" horiz-adv-x="411" d=" M176,570 L238,697 L346,697 L241,570 M176,445 L176,0 L74,0 L74,525 L411,525 L381,445"/> 
            <glyph glyph-name="є" unicode="&#x454;" horiz-adv-x="447" d=" M266,-8 Q43,-8 43,262 Q43,397 99.5,464.5 Q156,532 268,531 Q361,531 439,500 L439,432 Q360,454 304,454 Q249,454 202,432 Q153,411 149,299 L376,299 L346,219 L149,219 Q155,150 182,110 Q211,69 284,69 Q357,69 447,92 L447,24 Q363,-8 266,-8"/> 
            <glyph glyph-name="ѕ" unicode="&#x455;" horiz-adv-x="473" d=" M170,338 Q200,320 286,304 Q374,288 424,250 Q473,213 473,144 Q473,-7 245,-7 Q120,-7 51,23 L51,91 Q144,67 226,67 Q307,67 340,82 Q371,96 371,129 Q371,182 347,199 Q325,214 256,228 Q137,252 90,286 Q43,321 43,375 Q43,464 98,498 Q152,533 250,531 Q346,528 444,504 L444,435 Q337,457 262,457 Q190,457 168,442 Q145,427 145,391 Q145,355 170,338"/> 
            <glyph glyph-name="і" unicode="&#x456;" horiz-adv-x="166" d=" M65,727 L166,727 L166,600 L65,600 M65,525 L166,525 L166,0 L65,0"/> 
            <glyph glyph-name="ї" unicode="&#x457;" horiz-adv-x="267" d=" M166,681 L267,681 L267,570 L166,570 M-15,681 L86,681 L86,570 L-15,570 M75,525 L176,525 L176,0 L75,0"/> 
            <glyph glyph-name="ј" unicode="&#x458;" horiz-adv-x="166" d=" M166,525 L166,-25 Q166,-137 94,-176 Q20,-213 -98,-179 L-98,-111 Q13,-136 40,-114 Q65,-90 65,-47 L65,525 M65,727 L166,727 L166,600 L65,600"/> 
            <glyph glyph-name="љ" unicode="&#x459;" horiz-adv-x="809" d=" M480,73 L612,73 Q664,73 686,88 Q710,104 710,150 Q710,196 686,214 Q664,233 613,233 L480,233 M110,60 Q116,73 116,116 L116,525 L480,525 L480,310 L615,310 Q706,310 758,276 Q809,243 809,151 Q809,20 731,10 Q657,0 615,0 L391,0 L391,449 L205,449 L205,105 Q205,-6 97,-6 Q43,-6 1,5 L1,54 Q43,48 73,48 Q104,48 110,60"/> 
            <glyph glyph-name="њ" unicode="&#x45A;" horiz-adv-x="835" d=" M506,73 L638,73 Q690,73 712,88 Q736,104 736,150 Q736,196 712,214 Q690,233 639,233 L506,233 M168,525 L168,310 L412,310 L412,525 L506,525 L506,310 L641,310 Q732,310 784,276 Q835,243 835,151 Q835,20 757,10 Q683,0 641,0 L412,0 L412,233 L168,233 L168,0 L74,0 L74,525"/> 
            <glyph glyph-name="ћ" unicode="&#x45B;" horiz-adv-x="521" d=" M357,531 Q443,531 482,486 Q521,440 521,371 L521,0 L420,0 L420,371 Q420,418 396,436 Q373,456 342,456 Q283,456 190,422 L166,413 L166,0 L65,0 L65,590 L9,590 L9,658 L65,658 L65,722 L166,752 L166,658 L316,658 L316,590 L166,590 L166,482 Q270,531 357,531"/> 
            <glyph glyph-name="ќ" unicode="&#x45C;" horiz-adv-x="532" d=" M221,570 L283,697 L391,697 L286,570 M77,0 L77,525 L175,525 L175,304 L405,525 L530,525 L264,269 L532,0 L407,0 L175,232 L175,0"/> 
            <glyph glyph-name="ѝ" unicode="&#x45D;" horiz-adv-x="518" d=" M281,570 L176,697 L284,697 L346,570 M172,525 L172,113 L395,525 L518,525 L518,0 L420,0 L420,418 L196,0 L74,0 L74,525"/> 
            <glyph glyph-name="ў" unicode="&#x45E;" horiz-adv-x="520" d=" M196,604 Q160,638 160,683 L221,683 Q231,628 289,628 Q346,628 365,683 L427,683 Q426,637 388,604 Q351,570 292,570 Q231,570 196,604 M520,-33 Q520,-194 276,-194 Q204,-194 119,-173 L119,-105 Q194,-119 242,-119 Q342,-119 382,-99 Q419,-79 419,-14 L419,59 Q308,13 254,13 Q65,13 65,171 L65,505 L166,535 L166,164 Q166,124 189,106 Q213,90 262,90 Q311,90 419,125 L419,525 L520,525"/> 
            <glyph glyph-name="џ" unicode="&#x45F;" horiz-adv-x="504" d=" M74,0 L74,525 L171,525 L171,76 L406,76 L406,525 L504,525 L504,0 L339,0 L339,-163 L237,-163 L237,0"/> 
            <glyph glyph-name="Ѡ" unicode="&#x460;" horiz-adv-x="879" d=" M778,727 L879,727 L879,217 L650,-18 L474,164 L297,-18 L70,217 L70,727 L171,727 L171,238 L297,106 L424,238 L424,727 L525,727 L525,238 L650,106 L778,238"/> 
            <glyph glyph-name="ѡ" unicode="&#x461;" horiz-adv-x="649" d=" M559,524 L649,524 L649,153 L479,-21 L356,104 L233,-21 L65,153 L65,524 L155,524 L155,173 L233,91 L313,173 L313,524 L401,524 L401,173 L479,91 L559,173"/> 
            <glyph glyph-name="Ѣ" unicode="&#x462;" horiz-adv-x="635" d=" M279,75 L392,75 Q469,75 500,100 Q533,125 533,183 Q533,278 501,302 Q471,328 393,328 L279,328 M-2,727 L485,727 L455,647 L279,647 L279,409 L395,409 Q572,409 604,334 Q635,262 635,198 Q635,81 578,41 Q519,0 395,0 L178,0 L178,647 L-2,647"/> 
            <glyph glyph-name="ѣ" unicode="&#x463;" horiz-adv-x="580" d=" M256,73 L383,73 Q434,73 458,88 Q481,105 481,150 Q481,196 458,214 Q435,233 384,233 L256,233 M420,525 L420,445 L256,445 L256,310 L386,310 Q478,310 528,276 Q580,243 580,151 Q580,20 502,10 Q428,0 386,0 L158,0 L158,445 L-2,445 L-2,525"/> 
            <glyph glyph-name="Ѥ" unicode="&#x464;" horiz-adv-x="772" d=" M574,-5 Q484,-5 386,45 Q287,95 276,328 L172,328 L172,0 L70,0 L70,727 L172,727 L172,408 L277,408 Q294,734 560,734 Q670,734 772,700 L772,632 Q664,656 594,656 Q525,656 457,621 Q390,586 382,408 L655,408 L625,328 L381,328 Q398,73 579,73 Q656,73 772,97 L772,29 Q666,-5 574,-5"/> 
            <glyph glyph-name="ѥ" unicode="&#x465;" horiz-adv-x="667" d=" M486,-8 Q284,-8 264,219 L171,219 L171,0 L70,0 L70,525 L171,525 L171,299 L264,299 Q272,463 350,496 Q424,531 504,531 Q582,531 659,500 L659,432 Q580,454 524,454 Q469,454 422,432 Q373,411 369,299 L596,299 L566,219 L369,219 Q375,150 402,110 Q431,69 504,69 Q577,69 667,92 L667,24 Q583,-8 486,-8"/> 
            <glyph glyph-name="Ѧ" unicode="&#x466;" horiz-adv-x="636" d=" M248,408 L403,408 L326,650 M279,330 L223,330 L117,0 L15,0 L252,727 L401,727 L636,0 L534,0 L428,330 L373,330 L373,0 L279,0"/> 
            <glyph glyph-name="ѧ" unicode="&#x467;" horiz-adv-x="472" d=" M200,310 L286,310 L243,441 M206,246 L180,246 L100,0 L15,0 L185,524 L303,524 L472,0 L387,0 L307,246 L283,246 L283,0 L206,0"/> 
            <glyph glyph-name="Ѩ" unicode="&#x468;" horiz-adv-x="871" d=" M483,409 L638,409 L561,650 M514,330 L458,330 L352,0 L250,0 L357,330 L172,330 L172,0 L70,0 L70,727 L172,727 L172,409 L383,409 L487,727 L636,727 L871,0 L769,0 L663,330 L608,330 L608,0 L514,0"/> 
            <glyph glyph-name="ѩ" unicode="&#x469;" horiz-adv-x="702" d=" M429,305 L517,305 L473,441 M436,233 L405,233 L330,0 L245,0 L320,233 L171,233 L171,0 L74,0 L74,525 L171,525 L171,305 L344,305 L415,524 L533,524 L702,0 L617,0 L541,233 L513,233 L513,0 L436,0"/> 
            <glyph glyph-name="Ѫ" unicode="&#x46A;" horiz-adv-x="690" d=" M371,410 L522,655 L221,655 M157,194 L157,0 L54,0 L54,195 Q54,313 123,352 Q194,390 226,396 Q270,404 273,404 L65,727 L677,727 L470,404 Q474,404 517,396 Q551,390 621,352 Q690,313 690,195 L690,0 L587,0 L587,194 Q587,313 423,327 L423,0 L320,0 L320,327 Q157,314 157,194"/> 
            <glyph glyph-name="ѫ" unicode="&#x46B;" horiz-adv-x="512" d=" M282,302 Q288,312 339,396 Q364,438 378,459 L186,459 M53,144 Q53,271 193,295 Q197,295 199,296 Q169,345 53,525 L511,525 L365,296 Q512,268 512,144 L512,0 L424,0 L424,146 Q424,216 332,227 Q331,228 328,228 L328,0 L237,0 L237,228 Q218,228 178,211 Q141,194 141,146 L141,0 L53,0"/> 
            <glyph glyph-name="Ѭ" unicode="&#x46C;" horiz-adv-x="909" d=" M590,410 L741,655 L440,655 M376,194 L376,0 L273,0 L273,195 Q273,276 322,332 L172,332 L172,0 L70,0 L70,727 L172,727 L172,409 L489,409 L284,727 L896,727 L689,404 Q693,404 736,396 Q770,390 840,352 Q909,313 909,195 L909,0 L806,0 L806,194 Q806,313 642,327 L642,0 L539,0 L539,327 Q376,314 376,194"/> 
            <glyph glyph-name="ѭ" unicode="&#x46D;" horiz-adv-x="704" d=" M474,302 Q480,312 531,396 Q556,438 570,459 L378,459 M333,0 L245,0 L245,144 Q245,190 256,209 Q266,227 271,233 L171,233 L171,0 L74,0 L74,525 L171,525 L171,305 L385,305 Q303,436 245,525 L703,525 L557,296 Q704,268 704,144 L704,0 L616,0 L616,146 Q616,216 524,227 Q523,228 520,228 L520,0 L429,0 L429,228 Q410,228 370,211 Q333,194 333,146"/> 
            <glyph glyph-name="Ѯ" unicode="&#x46E;" horiz-adv-x="506" d=" M366,552 Q366,654 256,652 Q147,651 54,591 L54,664 Q122,718 204,730 L122,833 L199,833 L257,754 L316,833 L397,833 L311,730 Q469,707 469,555 Q469,464 412,435 Q353,405 324,395 Q409,381 453,342 Q498,303 498,210 Q498,21 277,21 L208,21 Q150,21 150,-20 Q150,-46 168,-53 Q183,-60 208,-60 L393,-60 Q449,-60 478,-86 Q506,-111 506,-175 L506,-187 L432,-187 L432,-175 Q432,-155 424,-147 Q416,-139 396,-139 L219,-139 Q60,-139 60,-23 Q60,41 108,68 Q156,95 217,95 Q326,95 358,123 Q391,151 393,204 Q394,257 379,283 Q364,308 326,328 Q288,348 187,348 L151,348 L151,428 L187,428 Q366,428 366,552"/> 
            <glyph glyph-name="ѯ" unicode="&#x46F;" horiz-adv-x="407" d=" M379,390 Q379,306 289,270 Q401,243 401,134 Q401,-21 225,-21 L173,-21 Q136,-20 136,-46 Q136,-72 173,-72 L313,-72 Q358,-72 383,-92 Q407,-111 407,-165 L407,-181 L335,-181 L335,-165 Q335,-144 316,-144 L181,-144 Q53,-144 53,-48 Q53,48 189,48 Q256,48 282,66 Q306,84 307,124 Q309,189 270,207 Q230,225 157,225 L122,225 L122,300 L157,300 Q287,300 287,387 Q287,456 196,455 Q128,454 48,402 L48,476 Q92,513 155,528 L91,608 L169,608 L210,553 L251,608 L332,608 L265,528 Q379,502 379,390"/> 
            <glyph glyph-name="Ѱ" unicode="&#x470;" horiz-adv-x="703" d=" M372,190 L372,0 L272,0 L272,190 L142,190 L32,665 L126,665 L216,266 L272,266 L272,727 L372,727 L372,266 L422,266 L485,532 Q502,599 528,634 Q557,669 606,668 Q660,666 703,654 L690,593 Q685,594 668,598 Q650,601 635,602 Q613,603 598,586 Q584,566 576,528 L496,190"/> 
            <glyph glyph-name="ѱ" unicode="&#x471;" horiz-adv-x="703" d=" M372,0 L372,-195 L272,-195 L272,0 L142,0 L32,475 L126,475 L216,76 L272,76 L272,727 L372,727 L372,76 L422,76 L485,342 Q502,409 528,444 Q557,479 606,478 Q660,476 703,464 L690,403 Q685,404 668,408 Q650,411 635,412 Q613,413 598,396 Q584,376 576,338 L496,0"/> 
            <glyph glyph-name="Ѳ" unicode="&#x472;" horiz-adv-x="637" d=" M155,360 Q155,137 222,106 Q288,73 342,73 Q495,73 522,231 Q528,268 530,293 L327,293 L327,360 M358,427 L358,360 L532,360 Q532,584 464,620 Q397,656 342,656 Q289,656 228,624 Q168,593 157,427 M117,84 Q50,170 50,360 Q50,548 116,641 Q183,734 378,734 Q573,734 606,593 Q637,447 637,360 Q637,268 622,200 Q605,128 554,63 Q503,-5 343,-5 Q184,-5 117,84"/> 
            <glyph glyph-name="ѳ" unicode="&#x473;" horiz-adv-x="526" d=" M284,67 Q320,67 360,84 Q402,99 417,191 L270,191 L270,258 L148,258 L148,257 Q148,107 199,86 Q253,67 284,67 M301,325 L301,258 L421,258 Q421,367 386,412 Q353,457 283,457 Q168,457 152,325 M526,531 Q526,-7 284,-7 Q43,-7 43,262 Q41,531 284,531"/> 
            <glyph glyph-name="Ѵ" unicode="&#x474;" horiz-adv-x="743" d=" M729,632 Q696,648 667,650 Q626,653 615,636 Q604,617 591,578 L404,0 L256,0 L19,727 L126,727 L330,81 L493,598 Q506,640 542,707 Q578,768 743,701"/> 
            <glyph glyph-name="ѵ" unicode="&#x475;" horiz-adv-x="546" d=" M429,528 Q479,528 546,502 L534,436 Q500,449 482,452 Q465,457 456,444 Q446,433 439,409 L309,0 L190,0 L19,525 L114,525 L249,93 L353,428 Q377,500 429,528"/> 
            <glyph glyph-name="Ѷ" unicode="&#x476;" horiz-adv-x="743" d=" M241,772 L136,899 L244,899 L306,772 M399,772 L294,899 L402,899 L464,772 M729,632 Q696,648 667,650 Q626,653 615,636 Q604,617 591,578 L404,0 L256,0 L19,727 L126,727 L330,81 L493,598 Q506,640 542,707 Q578,768 743,701"/> 
            <glyph glyph-name="ѷ" unicode="&#x477;" horiz-adv-x="546" d=" M164,570 L59,697 L167,697 L229,570 M322,570 L217,697 L325,697 L387,570 M429,528 Q479,528 546,502 L534,436 Q500,449 482,452 Q465,457 456,444 Q446,433 439,409 L309,0 L190,0 L19,525 L114,525 L249,93 L353,428 Q377,500 429,528"/> 
            <glyph glyph-name="Ѹ" unicode="&#x478;" horiz-adv-x="1153" d=" M1153,-33 Q1153,-194 909,-194 Q838,-194 752,-173 L752,-105 Q827,-119 875,-119 Q977,-119 1014,-99 Q1052,-80 1052,-14 L1052,59 Q941,13 887,13 Q698,13 698,171 L698,505 L799,535 L799,164 Q799,124 822,106 Q846,90 895,90 Q944,90 1052,125 L1052,525 L1153,525 M446,73 Q532,207 532,360 Q532,584 464,620 Q397,656 342,656 Q287,656 252,637 Q216,616 196,580 Q175,547 164,488 Q155,433 155,360 Q155,287 164,233 Q175,178 206,126 Q238,73 446,73 M117,84 Q50,170 50,360 Q50,548 116,641 Q183,734 378,734 Q573,734 606,593 Q637,447 637,360 Q637,268 622,200 Q605,128 554,63 Q503,-5 343,-5 Q184,-5 117,84"/> 
            <glyph glyph-name="ѹ" unicode="&#x479;" horiz-adv-x="1037" d=" M421,285 Q420,457 284,457 Q148,457 148,285 Q148,154 180,110 Q213,67 286,67 Q388,67 405,136 Q421,201 421,285 M1037,-33 Q1037,-194 793,-194 Q722,-194 636,-173 L636,-105 Q711,-119 759,-119 Q861,-119 898,-99 Q936,-80 936,-14 L936,59 Q825,13 771,13 Q582,13 582,171 L582,505 L683,535 L683,164 Q683,124 706,106 Q730,90 779,90 Q828,90 936,125 L936,525 L1037,525 M526,531 Q526,-7 284,-7 Q43,-7 43,262 Q41,531 284,531"/> 
            <glyph glyph-name="Ѻ" unicode="&#x47A;" horiz-adv-x="737" d=" M353,100 Q413,100 436,77 Q632,105 632,360 Q632,570 488,634 Q460,647 435,651 Q413,629 382,629 Q352,629 330,651 Q250,638 192,566 Q135,496 135,324 Q135,154 276,93 Q305,81 330,77 M443,-1 Q427,-35 385,-35 Q344,-35 322,-1 Q202,13 116,102 Q30,191 30,360 Q30,532 116,622 Q200,715 322,730 Q343,764 385,764 Q426,764 443,729 Q565,712 651,622 Q737,528 737,360 Q737,191 651,102 Q566,16 443,-1"/> 
            <glyph glyph-name="ѻ" unicode="&#x47B;" horiz-adv-x="576" d=" M336,426 Q276,426 251,451 Q176,425 155,366 Q134,308 134,212 Q134,116 239,75 L251,71 Q270,98 307,98 Q342,98 362,72 Q364,74 382,80 Q400,86 424,110 Q448,136 461,170 Q475,209 475,257 Q475,307 454,364 Q433,420 369,447 Q367,448 364.5,449 Q362,450 361,450 M33,259 Q33,320 63,397 Q93,473 195,512 Q216,520 245,525 Q262,561 306,561 Q350,561 368,525 Q510,496 542,408 Q576,322 576,258 Q576,198 541,108 Q507,22 368,-1 Q350,-37 307,-37 Q265,-37 245,-2 Q166,10 120,54 Q72,99 53,148 Q33,199 33,259"/> 
            <glyph glyph-name="Ѽ" unicode="&#x47C;" horiz-adv-x="1036" d=" M478,727 L540,844 L648,844 L543,727 M1036,363 Q1036,99 932,48 Q830,-5 740,-5 Q652,-5 540,59 Q428,-5 339,-5 Q182,-5 113,93 Q44,190 44,363 Q44,734 328,734 Q418,734 490,700 L490,632 Q410,656 346,656 Q149,656 149,364 Q149,72 347,73 Q436,77 540,127 Q645,77 733,73 Q931,72 931,364 Q931,656 734,656 Q666,656 590,632 L590,700 Q675,733 752,734 Q1036,734 1036,363 M823,865 L823,800 Q747,800 702,820 Q656,841 628,856 Q603,870 564,885 Q532,898 482,898 Q433,898 408,875 Q383,854 369,800 L293,800 Q330,966 488,966 Q548,966 626,928 Q707,888 742,878 Q780,865 823,865"/> 
            <glyph glyph-name="ѽ" unicode="&#x47D;" horiz-adv-x="851" d=" M383,548 L445,665 L553,665 L448,548 M390,799 Q452,798 528,760 Q609,720 644,710 Q683,698 725,698 L725,633 Q648,633 604,654 Q558,675 530,690 Q502,706 466,718 Q434,731 384,731 Q335,731 310,708 Q285,687 271,633 L195,633 Q232,799 390,799 M626,531 Q738,532 794.5,464.5 Q851,397 851,262 Q851,-8 628,-8 Q530,-8 447,54 Q361,-8 266,-8 Q43,-8 43,262 Q43,397 99.5,464.5 Q156,532 268,531 Q341,531 419,500 L419,432 Q340,454 294,454 Q210,454 178,406 Q148,360 148,288 Q148,162 179,116 Q211,69 297,69 Q383,69 447,122 Q509,69 598,69 Q722,69 734,142 Q746,217 746,262 Q746,360 716,406 Q684,454 599,454 Q554,454 475,432 L475,500 Q553,531 626,531"/> 
            <glyph glyph-name="Ѿ" unicode="&#x47E;" horiz-adv-x="879" d=" M177,966 L784,966 L754,886 L525,886 L525,772 L424,772 L424,886 L177,886 M778,727 L879,727 L879,217 L650,-18 L474,164 L297,-18 L70,217 L70,727 L171,727 L171,238 L297,106 L424,238 L424,727 L525,727 L525,238 L650,106 L778,238"/> 
            <glyph glyph-name="ѿ" unicode="&#x47F;" horiz-adv-x="649" d=" M401,650 L401,570 L313,570 L313,650 L179,650 L179,726 L546,726 L516,650 M559,525 L649,525 L649,153 L479,-21 L356,104 L233,-21 L65,153 L65,525 L155,525 L155,173 L233,91 L313,173 L313,525 L401,525 L401,173 L479,91 L559,173"/> 
            <glyph glyph-name="Ҁ" unicode="&#x480;" horiz-adv-x="546" d=" M353,73 Q431,73 546,97 L546,-163 L444,-163 L444,4 Q438,4 413,0 Q392,-3 321,-5 Q188,-5 119,93 Q50,190 50,363 Q50,734 334,734 Q444,734 546,700 L546,632 Q438,656 352,656 Q155,656 155,364 Q155,72 353,73"/> 
            <glyph glyph-name="ҁ" unicode="&#x481;" horiz-adv-x="447" d=" M305,69 Q358,69 447,92 L447,-163 L345,-163 L345,-2 Q306,-8 266,-8 Q43,-8 43,262 Q43,397 99.5,464.5 Q156,532 268,531 Q361,531 439,500 L439,432 Q360,454 304,454 Q210,454 178,406 Q148,360 148,288 Q148,216 154,180 Q159,147 176,119 Q194,93 222,82 Q248,69 305,69"/> 
            <glyph glyph-name="҂" unicode="&#x482;" horiz-adv-x="510" d=" M116,571 L280,501 L383,727 L462,727 L347,473 L510,404 L480,334 L315,404 L271,307 L438,236 L408,165 L239,237 L132,0 L54,0 L174,265 L15,333 L45,404 L205,335 L249,432 L86,502"/> 
            <glyph glyph-name="҃" unicode="&#x483;" horiz-adv-x="145" d=" M30,869 Q66,869 66,915 L145,915 Q145,816 56,816 L-55,816 Q-90,816 -90,771 L-170,771 Q-170,820 -150,844 Q-132,869 -80,869"/> 
            <glyph glyph-name="҄" unicode="&#x484;" horiz-adv-x="134" d=" M-4,827 Q-62,827 -72,772 L-133,772 Q-133,816 -106,842 Q-81,867 -55,876 Q-30,885 14,885 Q58,885 95,852 Q133,817 134,772 L72,772 Q53,827 -4,827"/> 
            <glyph glyph-name="҅" unicode="&#x485;" horiz-adv-x="73" d=" M73,767 L0,767 L-69,926 L33,926"/> 
            <glyph glyph-name="҆" unicode="&#x486;" horiz-adv-x="68" d=" M-34,926 L68,926 L-1,767 L-74,767"/> 
            <glyph glyph-name="҇" unicode="&#x487;" horiz-adv-x="265" d=" M-70,966 Q-10,966 68,928 Q149,888 184,878 Q222,865 265,865 L265,800 Q189,800 144,820 Q98,841 70,856 Q45,870 6,885 Q-26,898 -76,898 Q-125,898 -150,875 Q-175,854 -189,800 L-265,800 Q-228,966 -70,966"/> 
            <glyph glyph-name="҈" unicode="&#x488;" horiz-adv-x="568" d=" M228,-51 Q228,-7 254,19 Q280,44 306,53 Q332,62 375,62 Q419,62 456,28 Q494,-5 495,-51 L433,-51 Q414,4 357,4 Q299,4 289,-51 M-495,-51 Q-495,-6 -468,19 Q-443,44 -417,53 Q-392,62 -348,62 Q-304,62 -267,28 Q-229,-5 -228,-51 L-290,-51 Q-309,4 -366,4 Q-424,4 -434,-51 M357,513 Q299,513 289,458 L228,458 Q228,502 254,528 Q280,553 306,562 Q332,571 375,571 Q418,571 456,538 Q494,503 495,458 L433,458 Q414,513 357,513 M-366,513 Q-424,513 -434,458 L-495,458 Q-495,503 -468,528 Q-443,553 -417,562 Q-392,571 -348,571 Q-304,571 -267,538 Q-229,503 -228,458 L-290,458 Q-309,513 -366,513 M301,203 Q301,248 328,273 Q353,298 379,307 Q404,316 448,316 Q492,316 529,282 Q567,249 568,203 L506,203 Q487,258 430,258 Q372,258 362,203 M-438,258 Q-496,258 -506,203 L-567,203 Q-567,248 -540,273 Q-515,298 -489,307 Q-464,316 -420,316 Q-376,316 -339,282 Q-301,249 -300,203 L-362,203 Q-381,258 -438,258 M-3,-140 Q-61,-140 -71,-195 L-132,-195 Q-132,-151 -106,-125 Q-80,-100 -54,-91 Q-28,-82 15,-82 Q59,-82 96,-116 Q134,-149 135,-195 L73,-195 Q54,-140 -3,-140 M-3,668 Q-61,668 -71,613 L-132,613 Q-132,657 -106,683 Q-80,708 -54,717 Q-28,726 15,726 Q59,726 96,692 Q134,659 135,613 L73,613 Q54,668 -3,668"/> 
            <glyph glyph-name="҉" unicode="&#x489;" horiz-adv-x="509" d=" M215,569 Q274,636 342,574 L320,550 Q282,583 254,552 L291,519 L235,457 L168,518 M-223,-42 Q-282,-108 -349,-47 L-327,-23 Q-290,-56 -262,-26 L-299,8 L-242,70 L-175,9 M348,-62 Q348,-26 334,-14 L301,-52 L237,2 L296,71 L349,26 Q415,-33 358,-101 L333,-79 M-347,570 Q-347,552 -333,541 L-300,579 L-236,524 L-295,456 L-348,501 Q-416,560 -357,627 L-332,606 Q-347,590 -347,570 M420,308 Q456,308 484,288 Q509,266 509,218 L476,218 Q476,242 464,254 Q453,268 434,268 L434,218 L350,218 L350,308 M-419,218 Q-457,218 -482,238 Q-508,258 -508,308 L-475,308 Q-475,284 -463,272 Q-452,258 -433,258 L-433,308 L-349,308 L-349,218 M-49,637 Q-49,676 -28,700 Q-9,726 41,726 L41,693 Q19,693 4,681 Q-9,668 -9,651 L41,651 L41,567 L-49,567 M41,-110 Q41,-147 20,-174 Q0,-199 -49,-199 L-49,-166 Q-27,-166 -12,-154 Q1,-141 1,-124 L-49,-124 L-49,-40 L41,-40"/> 
            <glyph glyph-name="Ҋ" unicode="&#x48A;" horiz-adv-x="702" d=" M251,806 Q215,840 215,885 L276,885 Q286,830 344,830 Q401,830 420,885 L482,885 Q481,839 443,806 Q406,772 346,772 Q286,772 251,806 M70,0 L70,727 L168,727 L168,77 L467,727 L632,727 L632,51 L702,51 L602,-163 L500,-163 L576,0 L535,0 L535,652 L235,0"/> 
            <glyph glyph-name="ҋ" unicode="&#x48B;" horiz-adv-x="593" d=" M190,604 Q154,638 154,683 L215,683 Q225,628 283,628 Q340,628 359,683 L421,683 Q420,637 382,604 Q345,570 286,570 Q225,570 190,604 M420,0 L420,418 L196,0 L74,0 L74,525 L172,525 L172,113 L395,525 L518,525 L518,51 L593,51 L493,-163 L391,-163 L467,0"/> 
            <glyph glyph-name="Ҍ" unicode="&#x48C;" horiz-adv-x="537" d=" M181,75 L294,75 Q371,75 402,100 Q435,125 435,183 Q435,278 403,302 Q373,328 295,328 L181,328 M268,571 L181,571 L181,409 L297,409 Q474,409 506,334 Q537,262 537,198 Q537,81 480,41 Q421,0 297,0 L80,0 L80,571 L0,571 L0,651 L80,651 L80,727 L181,727 L181,651 L268,651"/> 
            <glyph glyph-name="ҍ" unicode="&#x48D;" horiz-adv-x="505" d=" M181,73 L308,73 Q360,73 382,88 Q406,104 406,150 Q406,196 382,214 Q360,233 309,233 L181,233 M268,381 L181,381 L181,310 L311,310 Q402,310 454,276 Q505,243 505,151 Q505,20 427,10 Q353,0 311,0 L83,0 L83,381 L0,381 L0,461 L83,461 L83,525 L181,525 L181,461 L268,461"/> 
            <glyph glyph-name="Ҏ" unicode="&#x48E;" horiz-adv-x="592" d=" M487,486 Q487,648 341,648 L171,648 L171,309 L317,309 L285,379 L387,379 L412,324 Q436,336 451,358 Q487,408 487,486 M592,449 Q592,286 450,243 L487,165 L385,165 L354,230 L171,230 L171,0 L70,0 L70,727 L354,727 Q476,727 534,669 Q592,611 592,449"/> 
            <glyph glyph-name="ҏ" unicode="&#x48F;" horiz-adv-x="531" d=" M384,102 Q426,144 426,252 Q426,361 408,394 Q388,430 365,442 Q343,456 289,456 Q236,456 166,423 L166,90 Q225,70 299,67 L262,146 L364,146 M531,270 Q531,76 424,17 L464,-68 L362,-68 L333,-6 Q326,-7 286,-7 Q250,-7 166,20 L166,-166 L65,-196 L65,505 L166,535 L166,496 Q232,528 304,530 Q431,532 480,465 Q531,398 531,270"/> 
            <glyph glyph-name="Ґ" unicode="&#x490;" horiz-adv-x="490" d=" M389,727 L389,799 L490,799 L490,647 L172,647 L172,0 L70,0 L70,727"/> 
            <glyph glyph-name="ґ" unicode="&#x491;" horiz-adv-x="411" d=" M310,525 L310,571 L411,571 L411,445 L176,445 L176,0 L74,0 L74,525"/> 
            <glyph glyph-name="Ғ" unicode="&#x492;" horiz-adv-x="490" d=" M70,409 L70,727 L490,727 L490,647 L172,647 L172,409 L352,409 L352,330 L172,330 L172,0 L70,0 L70,330 L0,330 L0,409"/> 
            <glyph glyph-name="ғ" unicode="&#x493;" horiz-adv-x="411" d=" M74,310 L74,525 L411,525 L411,445 L173,445 L173,310 L283,310 L283,233 L173,233 L173,0 L74,0 L74,233 L0,233 L0,310"/> 
            <glyph glyph-name="Ҕ" unicode="&#x494;" horiz-adv-x="521" d=" M396,320 Q372,339 319,339 Q266,339 172,298 L172,0 L70,0 L70,727 L490,727 L490,647 L172,647 L172,368 Q187,375 204,382 Q229,392 264,402 Q305,414 374,414 Q445,414 482,368 Q521,323 521,254 L521,-25 Q521,-137 449,-176 Q375,-213 257,-179 L257,-111 Q368,-136 395,-114 Q420,-90 420,-47 L420,254 Q420,299 396,320"/> 
            <glyph glyph-name="ҕ" unicode="&#x495;" horiz-adv-x="521" d=" M176,0 L74,0 L74,525 L411,525 L411,445 L176,445 L176,263 Q178,264 183,266 Q188,268 193.5,270.5 Q199,273 204,275 Q225,284 263,295 Q304,307 374,307 Q444,307 482,262 Q520,217 521,150 L521,-25 Q521,-137 449,-176 Q375,-213 257,-179 L257,-111 Q368,-136 395,-114 Q420,-90 420,-47 L420,150 Q419,232 327,232 Q283,232 190,198 L176,193"/> 
            <glyph glyph-name="Җ" unicode="&#x496;" horiz-adv-x="894" d=" M792,0 L747,0 L659,258 Q635,329 566,329 L480,329 L480,0 L378,0 L378,329 L290,329 Q224,329 197,256 L109,0 L10,0 L113,292 Q151,399 267,399 L21,727 L134,727 L371,399 L378,399 L378,727 L480,727 L480,399 L486,399 L723,727 L836,727 L589,399 Q648,404 688,372 Q729,340 745,295 L828,51 L894,51 L894,-163 L792,-163"/> 
            <glyph glyph-name="җ" unicode="&#x497;" horiz-adv-x="741" d=" M639,0 L591,0 L538,156 Q522,202 497,215 Q472,228 444,228 L395,228 L395,0 L300,0 L300,228 L252,228 Q184,228 158,156 L105,0 L7,0 L75,191 Q94,246 130,264 Q162,283 211,283 L14,525 L124,525 L300,294 L300,525 L395,525 L395,294 L569,525 L681,525 L484,283 Q534,283 566,264 Q602,246 621,191 L671,51 L741,51 L741,-163 L639,-163"/> 
            <glyph glyph-name="Ҙ" unicode="&#x498;" horiz-adv-x="498" d=" M292,-32 Q366,-32 366,-109 Q366,-148 344,-171 Q323,-195 275,-195 Q224,-195 177,-185 L177,-131 Q259,-143 278,-136 Q299,-128 299,-109 Q299,-79 269,-79 L191,-79 L210,-7 Q113,3 29,53 L29,123 Q203,47 298,72 Q391,99 394,198 Q394,315 314,326 Q233,338 187,338 L151,338 L151,416 L187,416 Q366,416 366,552 Q366,656 239,655 Q147,654 54,594 L54,664 Q134,729 239,734 Q469,740 469,555 Q469,434 324,385 Q498,358 498,198 Q497,-5 274,-10 L270,-32"/> 
            <glyph glyph-name="ҙ" unicode="&#x499;" horiz-adv-x="383" d=" M239,-32 Q313,-32 313,-109 Q313,-147 292,-171 Q270,-195 222,-195 Q171,-195 124,-185 L124,-131 Q206,-143 226,-136 Q246,-128 246,-109 Q246,-79 216,-79 L138,-79 L158,-6 Q95,3 38,37 L38,106 Q132,64 189,63 Q292,62 292,143 Q292,218 240,224 Q192,232 157,232 L123,232 L123,305 L157,305 Q273,305 273,390 Q273,453 200,452 Q128,451 55,402 L55,473 Q120,525 194,526 Q363,530 363,392 Q363,314 285,277 Q383,248 383,143 Q383,-6 221,-11 L217,-32"/> 
            <glyph glyph-name="Қ" unicode="&#x49A;" horiz-adv-x="633" d=" M70,727 L171,727 L171,411 L487,727 L612,727 L259,369 L567,51 L633,51 L633,-162 L531,-162 L531,0 L489,0 L171,327 L171,0 L70,0"/> 
            <glyph glyph-name="қ" unicode="&#x49B;" horiz-adv-x="547" d=" M77,0 L77,525 L175,525 L175,304 L405,525 L530,525 L264,269 L481,51 L547,51 L547,-162 L445,-162 L445,0 L407,0 L175,232 L175,0"/> 
            <glyph glyph-name="Ҝ" unicode="&#x49C;" horiz-adv-x="767" d=" M70,727 L171,727 L171,409 L226,409 L226,558 L277,558 L277,409 L319,409 L637,727 L762,727 L409,369 L767,0 L639,0 L319,330 L277,330 L277,180 L226,180 L226,330 L171,330 L171,0 L70,0"/> 
            <glyph glyph-name="ҝ" unicode="&#x49D;" horiz-adv-x="662" d=" M77,0 L77,525 L175,525 L175,310 L226,310 L226,411 L277,411 L277,310 L311,310 L535,525 L660,525 L394,269 L662,0 L537,0 L304,233 L277,233 L277,133 L226,133 L226,233 L175,233 L175,0"/> 
            <glyph glyph-name="Ҟ" unicode="&#x49E;" horiz-adv-x="617" d=" M70,650 L70,727 L171,727 L171,650 L241,650 L241,571 L171,571 L171,411 L487,727 L612,727 L259,369 L617,0 L489,0 L171,327 L171,0 L70,0 L70,571 L0,571 L0,650"/> 
            <glyph glyph-name="ҟ" unicode="&#x49F;" horiz-adv-x="520" d=" M65,650 L65,722 L166,752 L166,650 L241,650 L241,571 L166,571 L166,307 L393,525 L518,525 L252,269 L520,0 L395,0 L166,229 L166,0 L65,0 L65,571 L0,571 L0,650"/> 
            <glyph glyph-name="Ҡ" unicode="&#x4A0;" horiz-adv-x="667" d=" M120,726 L120,727 L221,727 L221,411 L537,727 L662,727 L309,369 L667,0 L539,0 L221,327 L221,0 L120,0 L120,647 L0,647 L0,726"/> 
            <glyph glyph-name="ҡ" unicode="&#x4A1;" horiz-adv-x="570" d=" M115,0 L115,446 L0,446 L0,525 L213,525 L213,304 L443,525 L568,525 L302,269 L570,0 L445,0 L213,232 L213,0"/> 
            <glyph glyph-name="Ң" unicode="&#x4A2;" horiz-adv-x="667" d=" M514,328 L172,328 L172,0 L70,0 L70,727 L172,727 L172,409 L514,409 L514,727 L616,727 L616,51 L667,51 L667,-162 L565,-162 L565,0 L514,0"/> 
            <glyph glyph-name="ң" unicode="&#x4A3;" horiz-adv-x="562" d=" M460,0 L411,0 L411,233 L171,233 L171,0 L74,0 L74,525 L171,525 L171,310 L411,310 L411,525 L509,525 L509,51 L562,51 L562,-162 L460,-162"/> 
            <glyph glyph-name="Ҥ" unicode="&#x4A4;" horiz-adv-x="934" d=" M514,328 L172,328 L172,0 L70,0 L70,727 L172,727 L172,409 L514,409 L514,727 L934,727 L934,647 L616,647 L616,0 L514,0"/> 
            <glyph glyph-name="ҥ" unicode="&#x4A5;" horiz-adv-x="748" d=" M171,525 L171,310 L411,310 L411,525 L748,525 L748,445 L509,445 L509,0 L411,0 L411,233 L171,233 L171,0 L74,0 L74,525"/> 
            <glyph glyph-name="Ҧ" unicode="&#x4A6;" horiz-adv-x="960" d=" M782,456 Q699,456 606,413 L606,0 L503,0 L503,647 L173,647 L173,0 L70,0 L70,727 L606,727 L606,483 L641,498 Q718,531 800,531 Q882,531 921,486 Q960,439 960,371 L960,-25 Q960,-137 888,-176 Q814,-213 696,-179 L696,-111 Q807,-136 834,-114 Q859,-90 859,-47 L859,371 Q859,418 836,436 Q813,456 782,456"/> 
            <glyph glyph-name="ҧ" unicode="&#x4A7;" horiz-adv-x="849" d=" M504,525 L504,263 Q506,264 511,266 Q516,268 521.5,270.5 Q527,273 532,275 Q553,284 591,295 Q632,307 702,307 Q772,307 810,262 Q849,216 849,147 L849,-25 Q849,-137 777,-176 Q703,-213 585,-179 L585,-111 Q696,-136 723,-114 Q748,-90 748,-47 L748,147 Q748,194 724,212 Q701,232 670,232 Q611,232 518,198 L504,193 L504,0 L406,0 L406,449 L171,449 L171,0 L74,0 L74,525"/> 
            <glyph glyph-name="Ҩ" unicode="&#x4A8;" horiz-adv-x="721" d=" M573,365 Q573,571 490,571 Q447,571 429,521 Q411,472 411,369 Q411,197 490,125 Q573,199 573,365 M492,654 Q661,654 661,364 Q661,222 626,164 Q595,106 572,84 Q632,68 710,88 L721,11 Q612,-29 489,23 Q429,-5 346,-5 Q267,-5 208,26 Q150,59 114,110 Q76,164 60,231 Q42,298 42,414 Q42,530 102,632 Q160,735 295,735 Q343,735 378,719 L366,645 Q330,654 290,654 Q212,654 176,573 Q140,492 140,407 Q140,77 346,77 Q382,77 407,84 Q320,171 320,371 Q320,571 382,612 Q443,654 492,654"/> 
            <glyph glyph-name="ҩ" unicode="&#x4A9;" horiz-adv-x="530" d=" M406,268 Q406,392 360,392 Q314,392 313,268 Q313,144 358,94 Q406,144 406,268 M440,-10 Q391,-10 357,18 Q319,-10 258,-10 Q199,-10 156,13 Q116,35 88,74 Q62,110 48,161 Q36,210 36,294 Q36,378 80,452 Q125,525 222,525 Q243,525 272,517 L261,445 Q233,450 222,450 Q124,450 124,262 Q124,134 170,100 Q217,66 243,66 Q265,66 281,68 Q230,132 230,260 Q230,469 358,469 Q486,469 487,258 Q487,135 434,67 Q475,59 519,77 L530,6 Q491,-10 440,-10"/> 
            <glyph glyph-name="Ҫ" unicode="&#x4AA;" horiz-adv-x="546" d=" M358,-32 Q432,-32 432,-109 Q432,-148 410,-171 Q389,-195 341,-195 Q290,-195 243,-185 L243,-131 Q325,-143 344,-136 Q365,-128 365,-109 Q365,-79 335,-79 L257,-79 L278,-1 Q174,14 112,102 Q50,193 50,363 Q50,734 334,734 Q444,734 546,700 L546,632 Q438,656 352,656 Q155,656 155,364 Q155,72 353,73 Q431,73 546,97 L546,29 Q442,-4 341,-5 L336,-32"/> 
            <glyph glyph-name="ҫ" unicode="&#x4AB;" horiz-adv-x="447" d=" M297,-32 Q371,-32 371,-109 Q371,-147 350,-171 Q327,-195 280,-195 Q229,-195 182,-185 L182,-131 Q264,-143 284,-136 Q304,-128 304,-109 Q304,-79 274,-79 L196,-79 L216,-4 Q43,20 43,264 Q43,531 268,531 Q361,531 439,500 L439,432 Q360,454 304,454 Q210,454 178,406 Q148,360 148,288 Q148,162 179,116 Q211,69 284,69 Q357,69 447,92 L447,24 Q369,-7 280,-8 L275,-32"/> 
            <glyph glyph-name="Ҭ" unicode="&#x4AC;" horiz-adv-x="632" d=" M25,727 L632,727 L602,647 L374,647 L374,51 L424,51 L424,-163 L322,-163 L322,0 L272,0 L272,647 L25,647"/> 
            <glyph glyph-name="ҭ" unicode="&#x4AD;" horiz-adv-x="439" d=" M220,0 L171,0 L171,449 L12,449 L12,525 L439,525 L409,449 L269,449 L269,51 L322,51 L322,-163 L220,-163"/> 
            <glyph glyph-name="Ү" unicode="&#x4AE;" horiz-adv-x="627" d=" M373,0 L270,0 L270,321 L15,727 L127,727 L321,410 L517,727 L627,727 L373,321"/> 
            <glyph glyph-name="ү" unicode="&#x4AF;" horiz-adv-x="567" d=" M343,-195 L240,-195 L240,69 L15,525 L122,525 L291,158 L462,525 L567,525 L343,69"/> 
            <glyph glyph-name="Ұ" unicode="&#x4B0;" horiz-adv-x="627" d=" M532,371 L532,292 L373,292 L373,0 L270,0 L270,292 L110,292 L110,371 L238,371 L15,727 L127,727 L321,410 L517,727 L627,727 L404,371"/> 
            <glyph glyph-name="ұ" unicode="&#x4B1;" horiz-adv-x="567" d=" M240,65 L240,69 L15,525 L122,525 L291,158 L462,525 L567,525 L343,69 L343,65 L502,65 L502,-14 L343,-14 L343,-195 L240,-195 L240,-14 L80,-14 L80,65"/> 
            <glyph glyph-name="Ҳ" unicode="&#x4B2;" horiz-adv-x="636" d=" M636,51 L636,-163 L534,-163 L534,0 L507,0 L319,279 L132,0 L19,0 L263,363 L19,727 L133,727 L320,448 L508,727 L621,727 L377,364 L587,51"/> 
            <glyph glyph-name="ҳ" unicode="&#x4B3;" horiz-adv-x="537" d=" M435,0 L414,0 L266,192 L118,0 L10,0 L212,262 L10,525 L118,525 L266,332 L414,525 L522,525 L320,262 L483,50 L537,50 L537,-164 L435,-164"/> 
            <glyph glyph-name="Ҵ" unicode="&#x4B4;" horiz-adv-x="842" d=" M740,0 L257,0 L257,647 L10,647 L10,727 L617,727 L587,647 L359,647 L359,80 L690,80 L690,727 L793,727 L793,51 L842,51 L842,-162 L740,-162"/> 
            <glyph glyph-name="ҵ" unicode="&#x4B5;" horiz-adv-x="651" d=" M169,0 L169,449 L10,449 L10,525 L437,525 L407,449 L266,449 L266,76 L501,76 L501,525 L599,525 L599,51 L651,51 L651,-162 L549,-162 L549,0"/> 
            <glyph glyph-name="Ҷ" unicode="&#x4B6;" horiz-adv-x="572" d=" M471,0 L420,0 L420,243 Q405,237 384,228 Q361,218 322,207 Q283,195 212,195 Q142,195 104,240 Q65,286 65,355 L65,707 L166,737 L166,355 Q166,308 190,290 Q213,270 244,270 Q303,270 396,304 L420,313 L420,726 L521,726 L521,51 L572,51 L572,-162 L471,-162"/> 
            <glyph glyph-name="ҷ" unicode="&#x4B7;" horiz-adv-x="571" d=" M470,0 L420,0 L420,183 Q405,177 384,168 Q361,158 322,147 Q283,135 212,135 Q142,135 104,180 Q65,226 65,295 L65,504 L166,534 L166,295 Q166,248 190,230 Q213,210 244,210 Q303,210 396,244 L420,253 L420,525 L521,525 L521,51 L571,51 L571,-162 L470,-162"/> 
            <glyph glyph-name="Ҹ" unicode="&#x4B8;" horiz-adv-x="521" d=" M224,195 Q143,195 104,240 Q65,286 65,355 L65,707 L166,737 L166,355 Q166,308 190,290 Q211,270 259,270 L268,270 L268,389 L319,389 L319,280 Q361,291 396,304 L420,313 L420,726 L521,726 L521,0 L420,0 L420,243 Q405,237 384,228 Q360,218 336,211 L319,206 L319,91 L268,91 L268,197 Q240,195 224,195"/> 
            <glyph glyph-name="ҹ" unicode="&#x4B9;" horiz-adv-x="521" d=" M224,135 Q143,135 104,180 Q65,226 65,295 L65,504 L166,534 L166,295 Q166,248 190,230 Q211,210 259,210 L268,210 L268,321 L319,321 L319,220 Q361,231 396,244 L420,253 L420,525 L521,525 L521,0 L420,0 L420,183 Q405,177 384,168 Q360,158 336,151 L319,146 L319,43 L268,43 L268,137 Q240,135 224,135"/> 
            <glyph glyph-name="Һ" unicode="&#x4BA;" horiz-adv-x="521" d=" M357,531 Q443,531 482,486 Q521,440 521,371 L521,0 L420,0 L420,371 Q420,418 396,436 Q373,456 342,456 Q283,456 190,422 L166,413 L166,0 L65,0 L65,722 L166,752 L166,482 Q270,531 357,531"/> 
            <glyph glyph-name="һ" unicode="&#x4BB;" horiz-adv-x="461" d=" M360,371 Q360,456 273,456 Q232,456 166,434 L166,0 L65,0 L65,722 L166,752 L166,507 Q238,531 311,531 Q383,531 422,486 Q461,440 461,371 L461,0 L360,0"/> 
            <glyph glyph-name="Ҽ" unicode="&#x4BC;" horiz-adv-x="814" d=" M498,652 Q388,652 340,591 Q290,530 282,387 L706,387 Q701,531 654,592 Q608,652 498,652 M814,384 Q814,334 811,311 L282,311 Q288,182 344,126 Q402,70 523,70 Q644,70 784,115 L784,42 Q644,-7 523,-7 Q404,-7 292,32 Q180,71 169,311 Q102,311 54,336 Q9,363 16,422 Q25,494 27,505 L94,505 Q89,473 89,444 Q89,412 108,400 Q127,389 168,387 Q176,554 252,642 Q329,731 499,731 Q814,731 814,384"/> 
            <glyph glyph-name="ҽ" unicode="&#x4BD;" horiz-adv-x="657" d=" M318,418 Q290,380 286,289 L559,289 Q558,378 537,408 Q518,436 492,447 Q466,457 406,457 Q348,457 318,418 M657,275 Q657,255 655,217 L286,217 Q288,138 320,104 Q350,68 443,68 Q536,68 636,98 L636,30 Q532,-7 443,-7 Q354,-7 276,22 Q197,49 185,217 Q108,217 54,243 Q1,269 33,415 L104,415 Q99,377 99,348 Q99,317 120,302 Q141,289 184,289 Q194,474 280,503 Q363,531 426,531 Q544,531 600,472 Q657,414 657,275"/> 
            <glyph glyph-name="Ҿ" unicode="&#x4BE;" horiz-adv-x="814" d=" M498,652 Q388,652 340,591 Q290,530 282,387 L706,387 Q701,531 654,592 Q608,652 498,652 M526,-133 L475,-133 L475,-7 Q400,-4 340,16 Q180,71 169,311 Q102,311 54,336 Q9,363 16,422 Q25,494 27,505 L94,505 Q89,473 89,444 Q89,412 108,400 Q127,389 168,387 Q176,554 252,642 Q329,731 499,731 Q814,731 814,384 Q814,334 811,311 L282,311 Q288,182 344,126 Q402,70 523,70 Q644,70 784,115 L784,42 Q660,-2 526,-6"/> 
            <glyph glyph-name="ҿ" unicode="&#x4BF;" horiz-adv-x="657" d=" M318,418 Q290,380 286,289 L559,289 Q558,378 537,408 Q518,436 492,447 Q466,457 406,457 Q348,457 318,418 M99,348 Q99,317 120,302 Q141,289 184,289 Q194,474 280,503 Q363,531 426,531 Q544,531 600,472 Q657,414 657,275 Q657,255 655,217 L286,217 Q288,138 320,104 Q350,68 443,68 Q536,68 636,98 L636,30 Q547,-2 452,-6 L452,-133 L401,-133 L401,-6 Q233,0 197,139 Q188,174 185,217 Q108,217 54,243 Q1,269 33,415 L104,415 Q99,377 99,348"/> 
            <glyph glyph-name="Ӏ" unicode="&#x4C0;" horiz-adv-x="172" d=" M70,727 L172,727 L172,0 L70,0"/> 
            <glyph glyph-name="Ӂ" unicode="&#x4C1;" horiz-adv-x="846" d=" M330,806 Q294,840 294,885 L355,885 Q365,830 423,830 Q480,830 499,885 L561,885 Q560,839 522,806 Q485,772 426,772 Q365,772 330,806 M378,399 L378,727 L480,727 L480,399 L486,399 L723,727 L836,727 L589,399 Q648,404 688,372 Q729,340 745,295 L846,0 L747,0 L659,258 Q635,329 566,329 L480,329 L480,0 L378,0 L378,329 L290,329 Q224,329 197,256 L109,0 L10,0 L113,292 Q151,399 267,399 L21,727 L134,727 L371,399"/> 
            <glyph glyph-name="ӂ" unicode="&#x4C2;" horiz-adv-x="689" d=" M248,604 Q212,638 212,683 L273,683 Q283,628 341,628 Q398,628 417,683 L479,683 Q478,637 440,604 Q403,570 344,570 Q283,570 248,604 M300,525 L395,525 L395,294 L569,525 L681,525 L484,283 Q534,283 566,264 Q602,246 621,191 L689,0 L591,0 L538,156 Q522,202 497,215 Q472,228 444,228 L395,228 L395,0 L300,0 L300,228 L252,228 Q184,228 158,156 L105,0 L7,0 L75,191 Q94,246 130,264 Q162,283 211,283 L14,525 L124,525 L300,294"/> 
            <glyph glyph-name="Ӄ" unicode="&#x4C3;" horiz-adv-x="612" d=" M171,0 L70,0 L70,727 L171,727 L171,411 L487,727 L612,727 L259,369 L549,102 Q668,-6 558,-126 Q521,-166 467,-193 L423,-134 Q465,-107 496,-79 Q551,-28 495,25 L171,331"/> 
            <glyph glyph-name="ӄ" unicode="&#x4C4;" horiz-adv-x="530" d=" M77,0 L77,525 L175,525 L175,304 L405,525 L530,525 L264,269 L460,102 Q588,-6 478,-126 Q442,-165 388,-193 L344,-134 Q386,-107 417,-79 Q473,-28 412,25 L175,236 L175,0"/> 
            <glyph glyph-name="Ӆ" unicode="&#x4C5;" horiz-adv-x="702" d=" M117,69 Q167,69 185,90 Q203,110 203,162 L203,727 L630,727 L630,51 L702,51 L602,-163 L500,-163 L576,0 L529,0 L529,647 L305,647 L305,147 Q305,-6 152,-6 Q78,-6 20,9 L20,77 Q70,69 117,69"/> 
            <glyph glyph-name="ӆ" unicode="&#x4C6;" horiz-adv-x="552" d=" M110,60 Q116,73 116,116 L116,525 L480,525 L480,51 L552,51 L452,-163 L350,-163 L426,0 L391,0 L391,449 L205,449 L205,105 Q205,-6 97,-6 Q43,-6 1,5 L1,54 Q43,48 73,48 Q104,48 110,60"/> 
            <glyph glyph-name="Ӈ" unicode="&#x4C7;" horiz-adv-x="616" d=" M514,328 L172,328 L172,0 L70,0 L70,727 L172,727 L172,409 L514,409 L514,727 L616,727 L616,-25 Q616,-137 544,-176 Q470,-213 352,-179 L352,-111 Q463,-136 490,-114 Q514,-90 514,-47"/> 
            <glyph glyph-name="ӈ" unicode="&#x4C8;" horiz-adv-x="509" d=" M171,525 L171,310 L411,310 L411,525 L509,525 L509,-25 Q509,-137 437,-176 Q363,-213 245,-179 L245,-111 Q356,-136 384,-114 Q411,-91 411,-47 L411,233 L171,233 L171,0 L74,0 L74,525"/> 
            <glyph glyph-name="Ӊ" unicode="&#x4C9;" horiz-adv-x="687" d=" M514,328 L172,328 L172,0 L70,0 L70,727 L172,727 L172,409 L514,409 L514,727 L616,727 L616,51 L687,51 L587,-163 L485,-163 L561,0 L514,0"/> 
            <glyph glyph-name="ӊ" unicode="&#x4CA;" horiz-adv-x="582" d=" M411,0 L411,233 L171,233 L171,0 L74,0 L74,525 L171,525 L171,310 L411,310 L411,525 L509,525 L509,51 L582,51 L482,-163 L380,-163 L456,0"/> 
            <glyph glyph-name="Ӌ" unicode="&#x4CB;" horiz-adv-x="521" d=" M369,51 L420,51 L420,243 Q405,237 384,228 Q361,218 322,207 Q283,195 212,195 Q142,195 104,240 Q65,286 65,355 L65,707 L166,737 L166,355 Q166,308 190,290 Q213,270 244,270 Q303,270 396,304 L420,313 L420,726 L521,726 L521,0 L471,0 L471,-162 L369,-162"/> 
            <glyph glyph-name="ӌ" unicode="&#x4CC;" horiz-adv-x="521" d=" M368,51 L420,51 L420,183 Q405,177 384,168 Q361,158 322,147 Q283,135 212,135 Q142,135 104,180 Q65,226 65,295 L65,504 L166,534 L166,295 Q166,248 190,230 Q213,210 244,210 Q303,210 396,244 L420,253 L420,525 L521,525 L521,0 L470,0 L470,-162 L368,-162"/> 
            <glyph glyph-name="Ӎ" unicode="&#x4CD;" horiz-adv-x="853" d=" M683,0 L683,654 L498,28 L353,28 L168,654 L168,0 L70,0 L70,727 L242,727 L426,103 L609,727 L781,727 L781,51 L853,51 L753,-163 L651,-163 L727,0"/> 
            <glyph glyph-name="ӎ" unicode="&#x4CE;" horiz-adv-x="643" d=" M483,0 L483,420 L372,19 L255,19 L145,420 L145,0 L57,0 L57,525 L199,525 L314,96 L428,525 L570,525 L570,51 L643,51 L543,-163 L441,-163 L517,0"/> 
            <glyph glyph-name="ӏ" unicode="&#x4CF;" horiz-adv-x="172" d=" M70,727 L172,727 L172,0 L70,0"/> 
            <glyph glyph-name="Ӑ" unicode="&#x4D0;" horiz-adv-x="636" d=" M232,806 Q196,840 196,885 L257,885 Q267,830 325,830 Q382,830 401,885 L463,885 Q462,839 424,806 Q387,772 328,772 Q267,772 232,806 M202,264 L449,264 L326,650 M474,186 L177,186 L117,0 L15,0 L252,727 L401,727 L636,0 L534,0"/> 
            <glyph glyph-name="ӑ" unicode="&#x4D1;" horiz-adv-x="494" d=" M269,628 Q326,628 345,683 L407,683 Q406,637 378,613 Q353,589 328,580 Q304,570 258,570 Q211,570 176,604 Q140,638 140,683 L201,683 Q211,628 269,628 M246,63 Q316,63 393,111 L393,269 Q204,269 176,235 Q148,201 148,159 Q148,63 246,63 M249,531 Q494,531 494,370 L494,0 L398,0 L398,43 Q300,-7 216,-7 Q43,-7 43,152 Q43,214 81,270 Q119,328 234,332 Q362,337 393,337 L393,351 Q393,444 330,450 Q266,456 214,456 Q165,456 90,442 L90,510 Q176,531 249,531"/> 
            <glyph glyph-name="Ӓ" unicode="&#x4D2;" horiz-adv-x="636" d=" M376,883 L477,883 L477,772 L376,772 M175,883 L276,883 L276,772 L175,772 M202,264 L449,264 L326,650 M474,186 L177,186 L117,0 L15,0 L252,727 L401,727 L636,0 L534,0"/> 
            <glyph glyph-name="ӓ" unicode="&#x4D3;" horiz-adv-x="494" d=" M331,681 L432,681 L432,570 L331,570 M130,681 L231,681 L231,570 L130,570 M246,63 Q316,63 393,111 L393,269 Q204,269 176,235 Q148,201 148,159 Q148,63 246,63 M249,531 Q494,531 494,370 L494,0 L398,0 L398,43 Q300,-7 216,-7 Q43,-7 43,152 Q43,214 81,270 Q119,328 234,332 Q362,337 393,337 L393,351 Q393,444 330,450 Q266,456 214,456 Q165,456 90,442 L90,510 Q176,531 249,531"/> 
            <glyph glyph-name="Ӕ" unicode="&#x4D4;" horiz-adv-x="857" d=" M433,264 L433,651 L249,264 M433,186 L212,186 L124,0 L20,0 L367,727 L857,727 L857,648 L531,648 L531,408 L841,408 L811,328 L531,328 L531,79 L857,79 L857,0 L433,0"/> 
            <glyph glyph-name="ӕ" unicode="&#x4D5;" horiz-adv-x="855" d=" M623,457 Q543,457 516,418 Q488,381 483,288 L758,288 Q757,377 728,418 Q701,457 623,457 M382,257 L382,269 Q193,269 165,235 Q137,201 137,159 Q137,63 235,63 Q314,63 400,122 Q382,170 382,257 M855,275 Q855,256 853,218 L483,218 Q484,141 517,104 Q548,68 641,68 Q734,68 834,98 L834,30 Q730,-7 603,-7 Q476,-7 427,68 Q319,-7 192,-7 Q118,-7 76,34 Q32,73 32,144 Q32,214 70,270 Q108,328 223,332 Q351,337 382,337 L382,351 Q382,444 318,450 Q255,456 203,456 Q154,456 79,442 L79,510 Q164,531 277,531 Q388,531 444,471 Q502,531 622,531 Q742,531 798,472 Q855,414 855,275"/> 
            <glyph glyph-name="Ӗ" unicode="&#x4D6;" horiz-adv-x="556" d=" M222,806 Q186,840 186,885 L247,885 Q257,830 315,830 Q372,830 391,885 L453,885 Q452,839 414,806 Q377,772 318,772 Q257,772 222,806 M70,727 L556,727 L556,648 L172,648 L172,408 L539,408 L509,328 L172,328 L172,79 L556,79 L556,0 L70,0"/> 
            <glyph glyph-name="ӗ" unicode="&#x4D7;" horiz-adv-x="516" d=" M281,628 Q338,628 357,683 L419,683 Q418,637 390,613 Q365,589 340,580 Q316,570 270,570 Q223,570 188,604 Q152,638 152,683 L213,683 Q223,628 281,628 M178,418 Q150,382 145,289 L418,289 Q417,378 396,408 Q376,437 350,447 Q327,457 265,457 Q205,457 178,418 M516,275 Q516,255 514,217 L145,217 Q146,140 178,104 Q211,68 302,68 Q394,68 495,98 L495,30 Q391,-7 302,-7 Q214,-7 170,9 Q124,27 84,72 Q43,118 43,257 Q43,472 133,502 Q225,531 285,531 Q403,531 460,472 Q516,413 516,275"/> 
            <glyph glyph-name="Ә" unicode="&#x4D8;" horiz-adv-x="705" d=" M402,72 Q483,72 534,133 Q584,197 591,337 L167,337 Q170,130 244,101 Q320,72 402,72 M59,340 Q59,390 62,413 L591,413 Q585,543 528,598 Q470,654 349,654 Q227,654 89,609 L89,682 Q229,731 350,731 Q470,731 530,710 Q592,688 648,624 Q705,558 705,369 Q705,179 624,86 Q544,-7 374,-7 Q59,-7 59,340"/> 
            <glyph glyph-name="ә" unicode="&#x4D9;" horiz-adv-x="516" d=" M382,106 Q410,144 414,235 L141,235 Q142,146 163,116 Q182,88 208,77 Q232,67 293,67 Q352,67 382,106 M43,230 Q43,271 45,307 L414,307 Q409,388 380,422 Q349,456 257,456 Q164,456 64,426 L64,494 Q169,530 288,530 Q407,530 462,466 Q516,403 516,267 Q516,53 426,23 Q334,-7 275,-7 Q216,-7 172,7 Q127,20 100,52 Q70,83 57,132 Q43,182 43,230"/> 
            <glyph glyph-name="Ӛ" unicode="&#x4DA;" horiz-adv-x="705" d=" M427,883 L528,883 L528,772 L427,772 M226,883 L327,883 L327,772 L226,772 M402,72 Q483,72 534,133 Q584,197 591,337 L167,337 Q170,130 244,101 Q320,72 402,72 M59,340 Q59,390 62,413 L591,413 Q585,543 528,598 Q470,654 349,654 Q227,654 89,609 L89,682 Q229,731 350,731 Q470,731 530,710 Q592,688 648,624 Q705,558 705,369 Q705,179 624,86 Q544,-7 374,-7 Q59,-7 59,340"/> 
            <glyph glyph-name="ӛ" unicode="&#x4DB;" horiz-adv-x="516" d=" M331,681 L432,681 L432,570 L331,570 M130,681 L231,681 L231,570 L130,570 M382,106 Q410,144 414,235 L141,235 Q142,146 163,116 Q182,88 208,77 Q232,67 293,67 Q352,67 382,106 M43,230 Q43,271 45,307 L414,307 Q409,388 380,422 Q349,456 257,456 Q164,456 64,426 L64,494 Q169,530 288,530 Q407,530 462,466 Q516,403 516,267 Q516,53 426,23 Q334,-7 275,-7 Q216,-7 172,7 Q127,20 100,52 Q70,83 57,132 Q43,182 43,230"/> 
            <glyph glyph-name="Ӝ" unicode="&#x4DC;" horiz-adv-x="846" d=" M478,883 L579,883 L579,772 L478,772 M277,883 L378,883 L378,772 L277,772 M378,399 L378,727 L480,727 L480,399 L486,399 L723,727 L836,727 L589,399 Q648,404 688,372 Q729,340 745,295 L846,0 L747,0 L659,258 Q635,329 566,329 L480,329 L480,0 L378,0 L378,329 L290,329 Q224,329 197,256 L109,0 L10,0 L113,292 Q151,399 267,399 L21,727 L134,727 L371,399"/> 
            <glyph glyph-name="ӝ" unicode="&#x4DD;" horiz-adv-x="689" d=" M400,681 L501,681 L501,570 L400,570 M199,681 L300,681 L300,570 L199,570 M300,525 L395,525 L395,294 L569,525 L681,525 L484,283 Q534,283 566,264 Q602,246 621,191 L689,0 L591,0 L538,156 Q522,202 497,215 Q472,228 444,228 L395,228 L395,0 L300,0 L300,228 L252,228 Q184,228 158,156 L105,0 L7,0 L75,191 Q94,246 130,264 Q162,283 211,283 L14,525 L124,525 L300,294"/> 
            <glyph glyph-name="Ӟ" unicode="&#x4DE;" horiz-adv-x="498" d=" M315,883 L416,883 L416,772 L315,772 M114,883 L215,883 L215,772 L114,772 M366,552 Q366,656 239,655 Q147,654 54,594 L54,664 Q134,729 239,734 Q469,740 469,555 Q469,434 324,385 Q498,358 498,198 Q497,-16 253,-10 Q131,-7 29,53 L29,123 Q203,47 298,72 Q391,99 394,198 Q394,315 314,326 Q233,338 187,338 L151,338 L151,416 L187,416 Q366,416 366,552"/> 
            <glyph glyph-name="ӟ" unicode="&#x4DF;" horiz-adv-x="383" d=" M256,681 L357,681 L357,570 L256,570 M55,681 L156,681 L156,570 L55,570 M273,390 Q273,453 200,452 Q128,451 55,402 L55,473 Q120,525 194,526 Q363,530 363,392 Q363,314 285,277 Q383,248 383,143 Q383,-16 203,-11 Q118,-10 38,37 L38,106 Q132,64 189,63 Q292,62 292,143 Q292,218 240,224 Q192,232 157,232 L123,232 L123,305 L157,305 Q273,305 273,390"/> 
            <glyph glyph-name="Ӡ" unicode="&#x4E0;" horiz-adv-x="556" d=" M556,118 Q556,-195 275,-195 Q98,-195 60,-112 Q23,-31 23,23 L129,23 Q129,-38 168,-77 Q208,-116 277,-116 Q450,-116 450,118 Q450,327 232,327 L232,408 L428,648 L62,648 L62,727 L544,727 L544,648 L344,402 Q556,367 556,118"/> 
            <glyph glyph-name="ӡ" unicode="&#x4E1;" horiz-adv-x="450" d=" M26,-5 L127,-5 Q127,-52 154,-84 Q183,-116 239,-116 Q346,-116 346,41 Q346,124 306,158 Q265,193 182,193 L182,265 L343,446 L55,446 L55,525 L442,525 L442,436 L289,268 Q364,258 408,194 Q450,130 450,58 Q450,-77 398,-136 Q347,-195 217,-195 Q87,-195 56,-122 Q26,-50 26,-5"/> 
            <glyph glyph-name="Ӣ" unicode="&#x4E2;" horiz-adv-x="632" d=" M523,854 L523,787 L183,787 L183,854 M632,0 L535,0 L535,652 L235,0 L70,0 L70,727 L168,727 L168,77 L467,727 L632,727"/> 
            <glyph glyph-name="ӣ" unicode="&#x4E3;" horiz-adv-x="518" d=" M470,637 L470,570 L130,570 L130,637 M172,525 L172,113 L395,525 L518,525 L518,0 L420,0 L420,418 L196,0 L74,0 L74,525"/> 
            <glyph glyph-name="Ӥ" unicode="&#x4E4;" horiz-adv-x="632" d=" M403,883 L504,883 L504,772 L403,772 M202,883 L303,883 L303,772 L202,772 M632,0 L535,0 L535,652 L235,0 L70,0 L70,727 L168,727 L168,77 L467,727 L632,727"/> 
            <glyph glyph-name="ӥ" unicode="&#x4E5;" horiz-adv-x="518" d=" M350,681 L451,681 L451,570 L350,570 M149,681 L250,681 L250,570 L149,570 M172,525 L172,113 L395,525 L518,525 L518,0 L420,0 L420,418 L196,0 L74,0 L74,525"/> 
            <glyph glyph-name="Ӧ" unicode="&#x4E6;" horiz-adv-x="637" d=" M392,883 L493,883 L493,772 L392,772 M191,883 L292,883 L292,772 L191,772 M117,84 Q50,170 50,360 Q50,548 116,641 Q183,734 378,734 Q573,734 606,593 Q637,447 637,360 Q637,268 622,200 Q605,128 554,63 Q503,-5 343,-5 Q184,-5 117,84 M446,73 Q532,207 532,360 Q532,584 464,620 Q397,656 342,656 Q287,656 252,637 Q216,616 196,580 Q175,547 164,488 Q155,433 155,360 Q155,287 164,233 Q175,178 206,126 Q238,73 446,73"/> 
            <glyph glyph-name="ӧ" unicode="&#x4E7;" horiz-adv-x="526" d=" M336,681 L437,681 L437,570 L336,570 M135,681 L236,681 L236,570 L135,570 M421,285 Q420,457 284,457 Q148,457 148,285 Q148,154 180,110 Q213,67 286,67 Q388,67 405,136 Q421,201 421,285 M526,531 Q526,-7 284,-7 Q43,-7 43,262 Q41,531 284,531"/> 
            <glyph glyph-name="Ө" unicode="&#x4E8;" horiz-adv-x="637" d=" M397,656 Q287,656 226,622 Q162,589 155,399 L531,399 Q527,520 497,570 Q469,617 432,637 M342,73 Q397,73 462,104 Q527,136 531,328 L155,328 Q159,205 188,156 Q218,108 252,90 Q289,73 342,73 M117,84 Q50,170 50,360 Q50,548 116,641 Q183,734 378,734 Q573,734 606,593 Q637,447 637,360 Q637,268 622,200 Q605,128 554,63 Q503,-5 343,-5 Q184,-5 117,84"/> 
            <glyph glyph-name="ө" unicode="&#x4E9;" horiz-adv-x="526" d=" M284,67 Q319,67 366,86 Q412,104 420,226 L148,226 Q156,103 202,85 Q250,67 284,67 M420,293 Q409,457 286,457 Q214,458 184,416 Q153,373 149,293 M526,531 Q526,-7 284,-7 Q43,-7 43,262 Q41,531 284,531"/> 
            <glyph glyph-name="Ӫ" unicode="&#x4EA;" horiz-adv-x="637" d=" M191,883 L292,883 L292,772 L191,772 M392,883 L493,883 L493,772 L392,772 M397,656 Q287,656 226,622 Q162,589 155,399 L531,399 Q527,520 497,570 Q469,617 432,637 M342,73 Q397,73 462,104 Q527,136 531,328 L155,328 Q159,205 188,156 Q218,108 252,90 Q289,73 342,73 M117,84 Q50,170 50,360 Q50,548 116,641 Q183,734 378,734 Q573,734 606,593 Q637,447 637,360 Q637,268 622,200 Q605,128 554,63 Q503,-5 343,-5 Q184,-5 117,84"/> 
            <glyph glyph-name="ӫ" unicode="&#x4EB;" horiz-adv-x="526" d=" M135,681 L236,681 L236,570 L135,570 M336,681 L437,681 L437,570 L336,570 M284,67 Q319,67 366,86 Q412,104 420,226 L148,226 Q156,103 202,85 Q250,67 284,67 M420,293 Q409,457 286,457 Q214,458 184,416 Q153,373 149,293 M526,531 Q526,-7 284,-7 Q43,-7 43,262 Q41,531 284,531"/> 
            <glyph glyph-name="Ӭ" unicode="&#x4EC;" horiz-adv-x="546" d=" M121,883 L222,883 L222,772 L121,772 M322,883 L423,883 L423,772 L322,772 M231,73 Q299,73 364,110 Q433,147 440,328 L197,328 L167,408 L440,408 Q432,521 390,588 Q349,656 253,656 Q158,656 50,632 L50,700 Q152,734 262,734 Q546,734 546,363 Q546,99 442,48 Q340,-5 248,-5 Q156,-5 50,29 L50,97 Q166,73 231,73"/> 
            <glyph glyph-name="ӭ" unicode="&#x4ED;" horiz-adv-x="447" d=" M80,681 L181,681 L181,570 L80,570 M281,681 L382,681 L382,570 L281,570 M222,531 Q334,532 390.5,464.5 Q447,397 447,262 Q447,-8 224,-8 Q127,-8 43,24 L43,92 Q133,69 185,69 Q240,69 288,90 Q336,111 340,219 L144,219 L114,299 L341,299 Q335,372 308,412 Q281,454 207,454 Q132,454 51,432 L51,500 Q129,531 222,531"/> 
            <glyph glyph-name="Ӯ" unicode="&#x4EE;" horiz-adv-x="520" d=" M463,854 L463,787 L123,787 L123,854 M520,156 Q520,-5 276,-5 Q204,-5 119,16 L119,84 Q194,70 242,70 Q342,70 382,90 Q419,110 419,175 L419,261 Q308,215 254,215 Q65,215 65,373 L65,707 L166,737 L166,366 Q166,326 189,308 Q213,292 262,292 Q311,292 419,327 L419,727 L520,727"/> 
            <glyph glyph-name="ӯ" unicode="&#x4EF;" horiz-adv-x="520" d=" M466,652 L466,585 L126,585 L126,652 M520,-33 Q520,-194 276,-194 Q204,-194 119,-173 L119,-105 Q194,-119 242,-119 Q342,-119 382,-99 Q419,-79 419,-14 L419,59 Q308,13 254,13 Q65,13 65,171 L65,505 L166,535 L166,164 Q166,124 189,106 Q213,90 262,90 Q311,90 419,125 L419,525 L520,525"/> 
            <glyph glyph-name="Ӱ" unicode="&#x4F0;" horiz-adv-x="520" d=" M153,883 L254,883 L254,772 L153,772 M354,883 L455,883 L455,772 L354,772 M520,156 Q520,-5 276,-5 Q204,-5 119,16 L119,84 Q194,70 242,70 Q342,70 382,90 Q419,110 419,175 L419,261 Q308,215 254,215 Q65,215 65,373 L65,707 L166,737 L166,366 Q166,326 189,308 Q213,292 262,292 Q311,292 419,327 L419,727 L520,727"/> 
            <glyph glyph-name="ӱ" unicode="&#x4F1;" horiz-adv-x="520" d=" M154,681 L255,681 L255,570 L154,570 M355,681 L456,681 L456,570 L355,570 M520,-33 Q520,-194 276,-194 Q204,-194 119,-173 L119,-105 Q194,-119 242,-119 Q342,-119 382,-99 Q419,-79 419,-14 L419,59 Q308,13 254,13 Q65,13 65,171 L65,505 L166,535 L166,164 Q166,124 189,106 Q213,90 262,90 Q311,90 419,125 L419,525 L520,525"/> 
            <glyph glyph-name="Ӳ" unicode="&#x4F2;" horiz-adv-x="520" d=" M158,772 L220,899 L328,899 L223,772 M316,772 L378,899 L486,899 L381,772 M520,156 Q520,-5 276,-5 Q204,-5 119,16 L119,84 Q194,70 242,70 Q342,70 382,90 Q419,110 419,175 L419,261 Q308,215 254,215 Q65,215 65,373 L65,707 L166,737 L166,366 Q166,326 189,308 Q213,292 262,292 Q311,292 419,327 L419,727 L520,727"/> 
            <glyph glyph-name="ӳ" unicode="&#x4F3;" horiz-adv-x="520" d=" M165,570 L227,697 L335,697 L230,570 M323,570 L385,697 L493,697 L388,570 M520,-33 Q520,-194 276,-194 Q204,-194 119,-173 L119,-105 Q194,-119 242,-119 Q342,-119 382,-99 Q419,-79 419,-14 L419,59 Q308,13 254,13 Q65,13 65,171 L65,505 L166,535 L166,164 Q166,124 189,106 Q213,90 262,90 Q311,90 419,125 L419,525 L520,525"/> 
            <glyph glyph-name="Ӵ" unicode="&#x4F4;" horiz-adv-x="521" d=" M153,883 L254,883 L254,772 L153,772 M354,883 L455,883 L455,772 L354,772 M521,726 L521,0 L420,0 L420,243 Q405,237 384,228 Q361,218 322,207 Q283,195 212,195 Q142,195 104,240 Q65,286 65,355 L65,707 L166,737 L166,355 Q166,308 190,290 Q213,270 244,270 Q303,270 396,304 L420,313 L420,726"/> 
            <glyph glyph-name="ӵ" unicode="&#x4F5;" horiz-adv-x="521" d=" M154,681 L255,681 L255,570 L154,570 M355,681 L456,681 L456,570 L355,570 M521,525 L521,0 L420,0 L420,183 Q405,177 384,168 Q361,158 322,147 Q283,135 212,135 Q142,135 104,180 Q65,226 65,295 L65,504 L166,534 L166,295 Q166,248 190,230 Q213,210 244,210 Q303,210 396,244 L420,253 L420,525"/> 
            </font>
</defs>
</svg>
